<?xml version="1.0" encoding="UTF-8" standalone="no"?>
<!DOCTYPE svg PUBLIC "-//W3C//DTD SVG 1.1//EN"
 "http://www.w3.org/Graphics/SVG/1.1/DTD/svg11.dtd">
<!-- Generated by graphviz version 13.0.1 (20250615.1724)
 -->
<!-- Title: inventory Pages: 1 -->
<svg width="1250pt" height="1386pt"
 viewBox="0.00 0.00 1250.00 1386.00" xmlns="http://www.w3.org/2000/svg" xmlns:xlink="http://www.w3.org/1999/xlink">
<g id="graph0" class="graph" transform="scale(1 1) rotate(0) translate(4 1382)">
<title>inventory</title>
<polygon fill="white" stroke="none" points="-4,4 -4,-1382 1246.25,-1382 1246.25,4 -4,4"/>
<!-- layout:base -->
<g id="node1" class="node">
<title>layout:base</title>
<g id="a_node1"><a xlink:href="templates/base.blade.php" xlink:title="base">
<polygon fill="#d7bde2" stroke="black" points="1242.25,-660 1200.25,-660 1200.25,-664 1188.25,-664 1188.25,-624 1242.25,-624 1242.25,-660"/>
<polyline fill="none" stroke="black" points="1188.25,-660 1200.25,-660"/>
<text xml:space="preserve" text-anchor="middle" x="1215.25" y="-637.55" font-family="Helvetica,sans-Serif" font-size="11.00">base</text>
</a>
</g>
</g>
<!-- component:alert -->
<g id="node2" class="node">
<title>component:alert</title>
<g id="a_node2"><a xlink:href="templates/components/alert.blade.php" xlink:title="alert">
<polygon fill="#f5cba7" stroke="black" points="770.95,-647 716.95,-647 716.95,-643 712.95,-643 712.95,-639 716.95,-639 716.95,-619 712.95,-619 712.95,-615 716.95,-615 716.95,-611 770.95,-611 770.95,-647"/>
<polyline fill="none" stroke="black" points="716.95,-643 720.95,-643 720.95,-639 716.95,-639"/>
<polyline fill="none" stroke="black" points="716.95,-619 720.95,-619 720.95,-615 716.95,-615"/>
<text xml:space="preserve" text-anchor="middle" x="743.95" y="-624.55" font-family="Helvetica,sans-Serif" font-size="11.00">alert</text>
</a>
</g>
</g>
<!-- ui_enum:AlertVariant -->
<g id="node26" class="node">
<title>ui_enum:AlertVariant</title>
<g id="a_node26"><a xlink:href="src/UI/AlertVariant.php" xlink:title="AlertVariant">
<polygon fill="#d5f5e3" stroke="black" points="939.15,-647 877.71,-629 939.15,-611 1000.6,-629 939.15,-647"/>
<text xml:space="preserve" text-anchor="middle" x="939.15" y="-624.55" font-family="Helvetica,sans-Serif" font-size="11.00">AlertVariant</text>
</a>
</g>
</g>
<!-- component:alert&#45;&gt;ui_enum:AlertVariant -->
<g id="edge36" class="edge">
<title>component:alert&#45;&gt;ui_enum:AlertVariant</title>
<path fill="none" stroke="black" d="M771.41,-629C795.44,-629 832.05,-629 864.85,-629"/>
<polygon fill="black" stroke="black" points="864.75,-632.5 874.75,-629 864.75,-625.5 864.75,-632.5"/>
<text xml:space="preserve" text-anchor="middle" x="831.43" y="-630.95" font-family="Times,serif" font-size="9.00">uses_enum</text>
</g>
<!-- component:button -->
<g id="node3" class="node">
<title>component:button</title>
<g id="a_node3"><a xlink:href="templates/components/button.blade.php" xlink:title="button">
<polygon fill="#f5cba7" stroke="black" points="770.95,-350 716.95,-350 716.95,-346 712.95,-346 712.95,-342 716.95,-342 716.95,-322 712.95,-322 712.95,-318 716.95,-318 716.95,-314 770.95,-314 770.95,-350"/>
<polyline fill="none" stroke="black" points="716.95,-346 720.95,-346 720.95,-342 716.95,-342"/>
<polyline fill="none" stroke="black" points="716.95,-322 720.95,-322 720.95,-318 716.95,-318"/>
<text xml:space="preserve" text-anchor="middle" x="743.95" y="-327.55" font-family="Helvetica,sans-Serif" font-size="11.00">button</text>
</a>
</g>
</g>
<!-- ui_enum:ButtonVariant -->
<g id="node27" class="node">
<title>ui_enum:ButtonVariant</title>
<g id="a_node27"><a xlink:href="src/UI/ButtonVariant.php" xlink:title="ButtonVariant">
<polygon fill="#d5f5e3" stroke="black" points="939.15,-374 870.06,-356 939.15,-338 1008.25,-356 939.15,-374"/>
<text xml:space="preserve" text-anchor="middle" x="939.15" y="-351.55" font-family="Helvetica,sans-Serif" font-size="11.00">ButtonVariant</text>
</a>
</g>
</g>
<!-- component:button&#45;&gt;ui_enum:ButtonVariant -->
<g id="edge37" class="edge">
<title>component:button&#45;&gt;ui_enum:ButtonVariant</title>
<path fill="none" stroke="black" d="M771.41,-335.29C799.1,-338.73 843.49,-344.24 879.51,-348.72"/>
<polygon fill="black" stroke="black" points="879.02,-352.18 889.37,-349.94 879.88,-345.23 879.02,-352.18"/>
<text xml:space="preserve" text-anchor="middle" x="831.43" y="-346.67" font-family="Times,serif" font-size="9.00">uses_enum</text>
</g>
<!-- ui_enum:ButtonSize -->
<g id="node28" class="node">
<title>ui_enum:ButtonSize</title>
<g id="a_node28"><a xlink:href="src/UI/ButtonSize.php" xlink:title="ButtonSize">
<polygon fill="#d5f5e3" stroke="black" points="939.15,-320 880.9,-302 939.15,-284 997.41,-302 939.15,-320"/>
<text xml:space="preserve" text-anchor="middle" x="939.15" y="-297.55" font-family="Helvetica,sans-Serif" font-size="11.00">ButtonSize</text>
</a>
</g>
</g>
<!-- component:button&#45;&gt;ui_enum:ButtonSize -->
<g id="edge38" class="edge">
<title>component:button&#45;&gt;ui_enum:ButtonSize</title>
<path fill="none" stroke="black" d="M771.41,-327.89C801.29,-323.25 850.58,-315.6 887.85,-309.81"/>
<polygon fill="black" stroke="black" points="888.15,-313.31 897.49,-308.31 887.08,-306.39 888.15,-313.31"/>
<text xml:space="preserve" text-anchor="middle" x="831.43" y="-323.39" font-family="Times,serif" font-size="9.00">uses_enum</text>
</g>
<!-- component:card -->
<g id="node4" class="node">
<title>component:card</title>
<g id="a_node4"><a xlink:href="templates/components/card.blade.php" xlink:title="card">
<polygon fill="#f5cba7" stroke="black" points="770.95,-272 716.95,-272 716.95,-268 712.95,-268 712.95,-264 716.95,-264 716.95,-244 712.95,-244 712.95,-240 716.95,-240 716.95,-236 770.95,-236 770.95,-272"/>
<polyline fill="none" stroke="black" points="716.95,-268 720.95,-268 720.95,-264 716.95,-264"/>
<polyline fill="none" stroke="black" points="716.95,-244 720.95,-244 720.95,-240 716.95,-240"/>
<text xml:space="preserve" text-anchor="middle" x="743.95" y="-249.55" font-family="Helvetica,sans-Serif" font-size="11.00">card</text>
</a>
</g>
</g>
<!-- component:form&#45;group -->
<g id="node5" class="node">
<title>component:form&#45;group</title>
<g id="a_node5"><a xlink:href="templates/components/form-group.blade.php" xlink:title="form&#45;group">
<polygon fill="#f5cba7" stroke="black" points="778.57,-579 709.32,-579 709.32,-575 705.32,-575 705.32,-571 709.32,-571 709.32,-551 705.32,-551 705.32,-547 709.32,-547 709.32,-543 778.57,-543 778.57,-579"/>
<polyline fill="none" stroke="black" points="709.32,-575 713.32,-575 713.32,-571 709.32,-571"/>
<polyline fill="none" stroke="black" points="709.32,-551 713.32,-551 713.32,-547 709.32,-547"/>
<text xml:space="preserve" text-anchor="middle" x="743.95" y="-556.55" font-family="Helvetica,sans-Serif" font-size="11.00">form&#45;group</text>
</a>
</g>
</g>
<!-- component:input -->
<g id="node6" class="node">
<title>component:input</title>
<g id="a_node6"><a xlink:href="templates/components/input.blade.php" xlink:title="input">
<polygon fill="#f5cba7" stroke="black" points="770.95,-452 716.95,-452 716.95,-448 712.95,-448 712.95,-444 716.95,-444 716.95,-424 712.95,-424 712.95,-420 716.95,-420 716.95,-416 770.95,-416 770.95,-452"/>
<polyline fill="none" stroke="black" points="716.95,-448 720.95,-448 720.95,-444 716.95,-444"/>
<polyline fill="none" stroke="black" points="716.95,-424 720.95,-424 720.95,-420 716.95,-420"/>
<text xml:space="preserve" text-anchor="middle" x="743.95" y="-429.55" font-family="Helvetica,sans-Serif" font-size="11.00">input</text>
</a>
</g>
</g>
<!-- ui_enum:InputType -->
<g id="node29" class="node">
<title>ui_enum:InputType</title>
<g id="a_node29"><a xlink:href="src/UI/InputType.php" xlink:title="InputType">
<polygon fill="#d5f5e3" stroke="black" points="939.15,-452 884.73,-434 939.15,-416 993.58,-434 939.15,-452"/>
<text xml:space="preserve" text-anchor="middle" x="939.15" y="-429.55" font-family="Helvetica,sans-Serif" font-size="11.00">InputType</text>
</a>
</g>
</g>
<!-- component:input&#45;&gt;ui_enum:InputType -->
<g id="edge39" class="edge">
<title>component:input&#45;&gt;ui_enum:InputType</title>
<path fill="none" stroke="black" d="M771.41,-434C797.22,-434 837.53,-434 872.05,-434"/>
<polygon fill="black" stroke="black" points="871.99,-437.5 881.99,-434 871.99,-430.5 871.99,-437.5"/>
<text xml:space="preserve" text-anchor="middle" x="831.43" y="-435.95" font-family="Times,serif" font-size="9.00">uses_enum</text>
</g>
<!-- model:Migration -->
<g id="node7" class="node">
<title>model:Migration</title>
<g id="a_node7"><a xlink:href="src/Tables/Migration.php" xlink:title="Migration">
<path fill="#d5dbdb" stroke="black" d="M127.68,-1212.73C127.68,-1214.53 114.18,-1216 97.56,-1216 80.94,-1216 67.43,-1214.53 67.43,-1212.73 67.43,-1212.73 67.43,-1183.27 67.43,-1183.27 67.43,-1181.47 80.94,-1180 97.56,-1180 114.18,-1180 127.68,-1181.47 127.68,-1183.27 127.68,-1183.27 127.68,-1212.73 127.68,-1212.73"/>
<path fill="none" stroke="black" d="M127.68,-1212.73C127.68,-1210.92 114.18,-1209.45 97.56,-1209.45 80.94,-1209.45 67.43,-1210.92 67.43,-1212.73"/>
<text xml:space="preserve" text-anchor="middle" x="97.56" y="-1193.55" font-family="Helvetica,sans-Serif" font-size="11.00">Migration</text>
</a>
</g>
</g>
<!-- model:User -->
<g id="node8" class="node">
<title>model:User</title>
<g id="a_node8"><a xlink:href="src/Tables/User.php" xlink:title="User">
<path fill="#d5dbdb" stroke="black" d="M1125.25,-171.73C1125.25,-173.53 1113.15,-175 1098.25,-175 1083.35,-175 1071.25,-173.53 1071.25,-171.73 1071.25,-171.73 1071.25,-142.27 1071.25,-142.27 1071.25,-140.47 1083.35,-139 1098.25,-139 1113.15,-139 1125.25,-140.47 1125.25,-142.27 1125.25,-142.27 1125.25,-171.73 1125.25,-171.73"/>
<path fill="none" stroke="black" d="M1125.25,-171.73C1125.25,-169.92 1113.15,-168.45 1098.25,-168.45 1083.35,-168.45 1071.25,-169.92 1071.25,-171.73"/>
<text xml:space="preserve" text-anchor="middle" x="1098.25" y="-152.55" font-family="Helvetica,sans-Serif" font-size="11.00">User</text>
</a>
</g>
</g>
<!-- route:home -->
<g id="node9" class="node">
<title>route:home</title>
<g id="a_node9"><a xlink:href="src/Routes/Route.php" xlink:title="/">
<ellipse fill="#aed6f1" stroke="black" cx="743.95" cy="-994" rx="27" ry="18"/>
<text xml:space="preserve" text-anchor="middle" x="743.95" y="-989.55" font-family="Helvetica,sans-Serif" font-size="11.00">/</text>
</a>
</g>
</g>
<!-- controller:HomeController -->
<g id="node10" class="node">
<title>controller:HomeController</title>
<g id="a_node10"><a xlink:href="src/Controllers/HomeController.php" xlink:title="HomeController">
<polygon fill="#a9dfbf" stroke="black" points="985.4,-1012 892.9,-1012 892.9,-976 985.4,-976 985.4,-1012"/>
<text xml:space="preserve" text-anchor="middle" x="939.15" y="-989.55" font-family="Helvetica,sans-Serif" font-size="11.00">HomeController</text>
</a>
</g>
</g>
<!-- route:home&#45;&gt;controller:HomeController -->
<g id="edge1" class="edge">
<title>route:home&#45;&gt;controller:HomeController</title>
<path fill="none" stroke="black" d="M771.41,-994C799.57,-994 844.99,-994 881.32,-994"/>
<polygon fill="black" stroke="black" points="881.25,-997.5 891.25,-994 881.25,-990.5 881.25,-997.5"/>
<text xml:space="preserve" text-anchor="middle" x="831.43" y="-995.95" font-family="Times,serif" font-size="9.00">handled_by</text>
</g>
<!-- view:home -->
<g id="node11" class="node">
<title>view:home</title>
<g id="a_node11"><a xlink:href="templates/home.blade.php" xlink:title="home">
<polygon fill="#f9e79f" stroke="black" points="1119.25,-911 1071.25,-911 1071.25,-875 1125.25,-875 1125.25,-905 1119.25,-911"/>
<polyline fill="none" stroke="black" points="1119.25,-911 1119.25,-905"/>
<polyline fill="none" stroke="black" points="1125.25,-905 1119.25,-905"/>
<text xml:space="preserve" text-anchor="middle" x="1098.25" y="-888.55" font-family="Helvetica,sans-Serif" font-size="11.00">home</text>
</a>
</g>
</g>
<!-- controller:HomeController&#45;&gt;view:home -->
<g id="edge2" class="edge">
<title>controller:HomeController&#45;&gt;view:home</title>
<path fill="none" stroke="black" d="M968.6,-975.71C994.63,-958.98 1033.24,-934.16 1061.37,-916.07"/>
<polygon fill="black" stroke="black" points="1063.05,-919.15 1069.57,-910.8 1059.27,-913.26 1063.05,-919.15"/>
<text xml:space="preserve" text-anchor="middle" x="1039.75" y="-939.4" font-family="Times,serif" font-size="9.00">renders</text>
</g>
<!-- view:home&#45;&gt;layout:base -->
<g id="edge14" class="edge">
<title>view:home&#45;&gt;layout:base</title>
<path fill="none" stroke="black" d="M1117.86,-874.72C1133.92,-857.97 1156.61,-831.76 1170.25,-805 1192.41,-761.5 1204.36,-705.61 1210.01,-671.87"/>
<polygon fill="black" stroke="black" points="1213.46,-672.42 1211.57,-661.99 1206.55,-671.32 1213.46,-672.42"/>
<text xml:space="preserve" text-anchor="middle" x="1156.75" y="-845.7" font-family="Times,serif" font-size="9.00">extends</text>
</g>
<!-- route:about -->
<g id="node12" class="node">
<title>route:about</title>
<g id="a_node12"><a xlink:href="src/Routes/Route.php" xlink:title="/about">
<ellipse fill="#aed6f1" stroke="black" cx="329.83" cy="-1144" rx="27.66" ry="18"/>
<text xml:space="preserve" text-anchor="middle" x="329.83" y="-1139.55" font-family="Helvetica,sans-Serif" font-size="11.00">/about</text>
</a>
</g>
</g>
<!-- view:about -->
<g id="node13" class="node">
<title>view:about</title>
<g id="a_node13"><a xlink:href="templates/about.blade.php" xlink:title="about">
<polygon fill="#f9e79f" stroke="black" points="566.32,-1162 518.32,-1162 518.32,-1126 572.32,-1126 572.32,-1156 566.32,-1162"/>
<polyline fill="none" stroke="black" points="566.32,-1162 566.32,-1156"/>
<polyline fill="none" stroke="black" points="572.32,-1156 566.32,-1156"/>
<text xml:space="preserve" text-anchor="middle" x="545.32" y="-1139.55" font-family="Helvetica,sans-Serif" font-size="11.00">about</text>
</a>
</g>
</g>
<!-- route:about&#45;&gt;view:about -->
<g id="edge3" class="edge">
<title>route:about&#45;&gt;view:about</title>
<path fill="none" stroke="black" d="M357.87,-1144C395.51,-1144 463.87,-1144 506.53,-1144"/>
<polygon fill="black" stroke="black" points="506.32,-1147.5 516.32,-1144 506.32,-1140.5 506.32,-1147.5"/>
<text xml:space="preserve" text-anchor="middle" x="436.43" y="-1145.95" font-family="Times,serif" font-size="9.00">renders</text>
</g>
<!-- view:about&#45;&gt;layout:base -->
<g id="edge9" class="edge">
<title>view:about&#45;&gt;layout:base</title>
<path fill="none" stroke="black" d="M572.72,-1144.66C610.45,-1145.54 682.01,-1147 742.95,-1147 742.95,-1147 742.95,-1147 1099.25,-1147 1197.41,-1147 1211.79,-779.67 1213.89,-671.58"/>
<polygon fill="black" stroke="black" points="1217.39,-671.84 1214.06,-661.78 1210.39,-671.72 1217.39,-671.84"/>
<text xml:space="preserve" text-anchor="middle" x="939.15" y="-1148.95" font-family="Times,serif" font-size="9.00">extends</text>
</g>
<!-- view:about&#45;&gt;route:home -->
<g id="edge10" class="edge">
<title>view:about&#45;&gt;route:home</title>
<path fill="none" stroke="black" d="M572.68,-1136.75C588.04,-1131.88 607.41,-1124.59 623.09,-1115 664.83,-1089.46 702.69,-1046.38 724.25,-1019.1"/>
<polygon fill="black" stroke="black" points="726.88,-1021.42 730.24,-1011.37 721.35,-1017.13 726.88,-1021.42"/>
<text xml:space="preserve" text-anchor="middle" x="659.09" y="-1103.96" font-family="Times,serif" font-size="9.00">references</text>
</g>
<!-- route:login -->
<g id="node14" class="node">
<title>route:login</title>
<g id="a_node14"><a xlink:href="src/Routes/Route.php" xlink:title="/login">
<ellipse fill="#aed6f1" stroke="black" cx="743.95" cy="-738" rx="27" ry="18"/>
<text xml:space="preserve" text-anchor="middle" x="743.95" y="-733.55" font-family="Helvetica,sans-Serif" font-size="11.00">/login</text>
</a>
</g>
</g>
<!-- view:login -->
<g id="node15" class="node">
<title>view:login</title>
<g id="a_node15"><a xlink:href="templates/login.blade.php" xlink:title="login">
<polygon fill="#f9e79f" stroke="black" points="566.32,-732 518.32,-732 518.32,-696 572.32,-696 572.32,-726 566.32,-732"/>
<polyline fill="none" stroke="black" points="566.32,-732 566.32,-726"/>
<polyline fill="none" stroke="black" points="572.32,-726 566.32,-726"/>
<text xml:space="preserve" text-anchor="middle" x="545.32" y="-709.55" font-family="Helvetica,sans-Serif" font-size="11.00">login</text>
</a>
</g>
</g>
<!-- route:login&#45;&gt;view:login -->
<g id="edge4" class="edge">
<title>route:login&#45;&gt;view:login</title>
<path fill="none" stroke="black" d="M716.7,-740.45C704.64,-741.46 690.15,-742.5 677.09,-743 661.1,-743.61 656.91,-745.37 641.09,-743 621.69,-740.1 600.77,-734.03 583.53,-728.19"/>
<polygon fill="black" stroke="black" points="584.81,-724.93 574.22,-724.92 582.5,-731.53 584.81,-724.93"/>
<text xml:space="preserve" text-anchor="middle" x="659.09" y="-746.15" font-family="Times,serif" font-size="9.00">renders</text>
</g>
<!-- view:login&#45;&gt;layout:base -->
<g id="edge15" class="edge">
<title>view:login&#45;&gt;layout:base</title>
<path fill="none" stroke="black" d="M572.71,-731.67C609.29,-754.4 678.24,-791 742.95,-791 742.95,-791 742.95,-791 1099.25,-791 1159.24,-791 1192.33,-714.37 1206.25,-671.02"/>
<polygon fill="black" stroke="black" points="1209.52,-672.3 1209.09,-661.72 1202.82,-670.26 1209.52,-672.3"/>
<text xml:space="preserve" text-anchor="middle" x="939.15" y="-792.95" font-family="Times,serif" font-size="9.00">extends</text>
</g>
<!-- view:login&#45;&gt;component:button -->
<g id="edge19" class="edge">
<title>view:login&#45;&gt;component:button</title>
<path fill="none" stroke="black" d="M553.96,-695.77C568.15,-661.67 599.31,-585.83 623.09,-521 631.73,-497.45 625.34,-487.03 641.09,-467.5 652.79,-452.99 664.63,-459.86 677.09,-446 689.86,-431.81 685.93,-423.75 695.09,-407 703.85,-390.97 714.74,-373.74 723.91,-359.84"/>
<polygon fill="black" stroke="black" points="726.75,-361.89 729.39,-351.63 720.93,-358.01 726.75,-361.89"/>
<text xml:space="preserve" text-anchor="middle" x="659.09" y="-469.45" font-family="Times,serif" font-size="9.00">uses</text>
</g>
<!-- view:login&#45;&gt;component:card -->
<g id="edge16" class="edge">
<title>view:login&#45;&gt;component:card</title>
<path fill="none" stroke="black" d="M555.53,-695.64C571.99,-661.96 606.3,-587.61 623.09,-521 640.09,-453.54 603.32,-423.93 641.09,-365.5 651.21,-349.85 664.63,-357.86 677.09,-344 689.86,-329.81 684.42,-320.83 695.09,-305 700.97,-296.27 708.35,-287.61 715.55,-279.97"/>
<polygon fill="black" stroke="black" points="717.67,-282.81 722.14,-273.21 712.66,-277.92 717.67,-282.81"/>
<text xml:space="preserve" text-anchor="middle" x="659.09" y="-367.45" font-family="Times,serif" font-size="9.00">uses</text>
</g>
<!-- view:login&#45;&gt;component:form&#45;group -->
<g id="edge17" class="edge">
<title>view:login&#45;&gt;component:form&#45;group</title>
<path fill="none" stroke="black" d="M572.59,-713.54C602.18,-711.56 649.71,-703.73 677.09,-675 700.14,-650.81 677.56,-630.45 695.09,-602 698.39,-596.64 702.62,-591.63 707.2,-587.06"/>
<polygon fill="black" stroke="black" points="709.51,-589.69 714.57,-580.39 704.81,-584.51 709.51,-589.69"/>
<text xml:space="preserve" text-anchor="middle" x="659.09" y="-699.41" font-family="Times,serif" font-size="9.00">uses</text>
</g>
<!-- view:login&#45;&gt;component:input -->
<g id="edge18" class="edge">
<title>view:login&#45;&gt;component:input</title>
<path fill="none" stroke="black" d="M559.1,-695.68C576.41,-671.41 608.86,-627.79 641.09,-594.5 655.68,-579.43 664.09,-580.46 677.09,-564 683.93,-555.34 712.03,-498.11 729.24,-462.53"/>
<polygon fill="black" stroke="black" points="732.34,-464.15 733.54,-453.63 726.04,-461.11 732.34,-464.15"/>
<text xml:space="preserve" text-anchor="middle" x="659.09" y="-596.45" font-family="Times,serif" font-size="9.00">uses</text>
</g>
<!-- view:login&#45;&gt;route:home -->
<g id="edge21" class="edge">
<title>view:login&#45;&gt;route:home</title>
<path fill="none" stroke="black" d="M568.43,-732.2C585.81,-747.68 609.31,-771.42 623.09,-797 638.94,-826.42 625.71,-840.33 641.09,-870 652.33,-891.68 664.08,-890.84 677.09,-911.5 687.8,-928.51 683.15,-936.82 695.09,-953 700.75,-960.67 708.11,-967.88 715.35,-974.04"/>
<polygon fill="black" stroke="black" points="713.16,-976.76 723.14,-980.3 717.54,-971.31 713.16,-976.76"/>
<text xml:space="preserve" text-anchor="middle" x="659.09" y="-913.45" font-family="Times,serif" font-size="9.00">references</text>
</g>
<!-- view:login&#45;&gt;route:login -->
<g id="edge20" class="edge">
<title>view:login&#45;&gt;route:login</title>
<path fill="none" stroke="black" d="M572.43,-717.19C606.61,-721.36 666.73,-728.7 705.69,-733.45"/>
<polygon fill="black" stroke="black" points="705.19,-736.92 715.54,-734.65 706.04,-729.97 705.19,-736.92"/>
<text xml:space="preserve" text-anchor="middle" x="659.09" y="-731.5" font-family="Times,serif" font-size="9.00">references</text>
</g>
<!-- route:register -->
<g id="node16" class="node">
<title>route:register</title>
<g id="a_node16"><a xlink:href="src/Routes/Route.php" xlink:title="/register">
<ellipse fill="#aed6f1" stroke="black" cx="743.95" cy="-143" rx="33.07" ry="18"/>
<text xml:space="preserve" text-anchor="middle" x="743.95" y="-138.55" font-family="Helvetica,sans-Serif" font-size="11.00">/register</text>
</a>
</g>
</g>
<!-- controller:RegisterController -->
<g id="node17" class="node">
<title>controller:RegisterController</title>
<g id="a_node17"><a xlink:href="src/Controllers/RegisterController.php" xlink:title="RegisterController">
<polygon fill="#a9dfbf" stroke="black" points="991.03,-175 887.28,-175 887.28,-139 991.03,-139 991.03,-175"/>
<text xml:space="preserve" text-anchor="middle" x="939.15" y="-152.55" font-family="Helvetica,sans-Serif" font-size="11.00">RegisterController</text>
</a>
</g>
</g>
<!-- route:register&#45;&gt;controller:RegisterController -->
<g id="edge5" class="edge">
<title>route:register&#45;&gt;controller:RegisterController</title>
<path fill="none" stroke="black" d="M776.85,-145.31C803.6,-147.25 842.6,-150.08 875.55,-152.46"/>
<polygon fill="black" stroke="black" points="875.19,-155.95 885.41,-153.18 875.69,-148.96 875.19,-155.95"/>
<text xml:space="preserve" text-anchor="middle" x="831.43" y="-152.37" font-family="Times,serif" font-size="9.00">handled_by</text>
</g>
<!-- controller:RegisterController&#45;&gt;model:User -->
<g id="edge8" class="edge">
<title>controller:RegisterController&#45;&gt;model:User</title>
<path fill="none" stroke="black" d="M991.16,-157C1013.48,-157 1039.19,-157 1059.72,-157"/>
<polygon fill="black" stroke="black" points="1059.62,-160.5 1069.62,-157 1059.62,-153.5 1059.62,-160.5"/>
<text xml:space="preserve" text-anchor="middle" x="1039.75" y="-158.95" font-family="Times,serif" font-size="9.00">persists</text>
</g>
<!-- view:register -->
<g id="node18" class="node">
<title>view:register</title>
<g id="a_node18"><a xlink:href="templates/register.blade.php" xlink:title="register">
<polygon fill="#f9e79f" stroke="black" points="566.32,-282 518.32,-282 518.32,-246 572.32,-246 572.32,-276 566.32,-282"/>
<polyline fill="none" stroke="black" points="566.32,-282 566.32,-276"/>
<polyline fill="none" stroke="black" points="572.32,-276 566.32,-276"/>
<text xml:space="preserve" text-anchor="middle" x="545.32" y="-259.55" font-family="Helvetica,sans-Serif" font-size="11.00">register</text>
</a>
</g>
</g>
<!-- controller:RegisterController&#45;&gt;view:register -->
<g id="edge6" class="edge">
<title>controller:RegisterController&#45;&gt;view:register</title>
<path fill="none" stroke="black" d="M886.79,-166.44C827.06,-178 725.81,-199.35 641.09,-226 621.49,-232.17 600.2,-240.54 582.78,-247.86"/>
<polygon fill="black" stroke="black" points="581.7,-244.52 573.87,-251.66 584.44,-250.96 581.7,-244.52"/>
<text xml:space="preserve" text-anchor="middle" x="743.95" y="-211.15" font-family="Times,serif" font-size="9.00">renders</text>
</g>
<!-- view:register&#45;&gt;layout:base -->
<g id="edge22" class="edge">
<title>view:register&#45;&gt;layout:base</title>
<path fill="none" stroke="black" d="M553.63,-245.52C566.51,-215.52 596.19,-156.63 641.09,-127 664.13,-111.8 766.11,-97 830.43,-97 830.43,-97 830.43,-97 1099.25,-97 1205.5,-97 1214.08,-498.56 1214.38,-612.3"/>
<polygon fill="black" stroke="black" points="1210.88,-612.04 1214.38,-622.04 1217.88,-612.04 1210.88,-612.04"/>
<text xml:space="preserve" text-anchor="middle" x="939.15" y="-98.95" font-family="Times,serif" font-size="9.00">extends</text>
</g>
<!-- view:register&#45;&gt;component:button -->
<g id="edge26" class="edge">
<title>view:register&#45;&gt;component:button</title>
<path fill="none" stroke="black" d="M572.35,-269.5C599.08,-275.51 641.67,-286.1 677.09,-299.5 686.79,-303.17 696.98,-307.79 706.37,-312.39"/>
<polygon fill="black" stroke="black" points="704.7,-315.47 715.2,-316.84 707.84,-309.21 704.7,-315.47"/>
<text xml:space="preserve" text-anchor="middle" x="659.09" y="-301.45" font-family="Times,serif" font-size="9.00">uses</text>
</g>
<!-- view:register&#45;&gt;component:card -->
<g id="edge23" class="edge">
<title>view:register&#45;&gt;component:card</title>
<path fill="none" stroke="black" d="M572.61,-250.91C598.84,-239.42 640.4,-225.41 677.09,-231.5 686.58,-233.08 696.54,-235.85 705.76,-238.92"/>
<polygon fill="black" stroke="black" points="704.53,-242.2 715.12,-242.25 706.87,-235.6 704.53,-242.2"/>
<text xml:space="preserve" text-anchor="middle" x="659.09" y="-233.45" font-family="Times,serif" font-size="9.00">uses</text>
</g>
<!-- view:register&#45;&gt;component:form&#45;group -->
<g id="edge24" class="edge">
<title>view:register&#45;&gt;component:form&#45;group</title>
<path fill="none" stroke="black" d="M550.91,-282.26C561.53,-321.87 590.83,-417.32 641.09,-482 657.8,-503.51 681.65,-522.43 702.07,-536.35"/>
<polygon fill="black" stroke="black" points="699.94,-539.14 710.21,-541.74 703.81,-533.3 699.94,-539.14"/>
<text xml:space="preserve" text-anchor="middle" x="659.09" y="-518.76" font-family="Times,serif" font-size="9.00">uses</text>
</g>
<!-- view:register&#45;&gt;component:input -->
<g id="edge25" class="edge">
<title>view:register&#45;&gt;component:input</title>
<path fill="none" stroke="black" d="M558.35,-282.41C574.82,-306.59 606.35,-349.33 641.09,-378 660.84,-394.3 686.03,-408.2 706.42,-418.07"/>
<polygon fill="black" stroke="black" points="704.69,-421.12 715.23,-422.21 707.67,-414.79 704.69,-421.12"/>
<text xml:space="preserve" text-anchor="middle" x="659.09" y="-403.38" font-family="Times,serif" font-size="9.00">uses</text>
</g>
<!-- view:register&#45;&gt;route:login -->
<g id="edge28" class="edge">
<title>view:register&#45;&gt;route:login</title>
<path fill="none" stroke="black" d="M555.04,-282.25C571.33,-317.22 606.26,-396.45 623.09,-467 640.51,-540.04 604.26,-569.56 641.09,-635 650.96,-652.55 662.4,-648.73 677.09,-662.5 693.91,-678.26 710.96,-697.93 723.5,-713.24"/>
<polygon fill="black" stroke="black" points="720.72,-715.38 729.73,-720.96 726.17,-710.98 720.72,-715.38"/>
<text xml:space="preserve" text-anchor="middle" x="659.09" y="-664.45" font-family="Times,serif" font-size="9.00">references</text>
</g>
<!-- view:register&#45;&gt;route:register -->
<g id="edge27" class="edge">
<title>view:register&#45;&gt;route:register</title>
<path fill="none" stroke="black" d="M553.71,-245.59C566.52,-216.53 595.88,-161.01 641.09,-138.5 660.03,-129.07 683.49,-129.43 703.12,-132.49"/>
<polygon fill="black" stroke="black" points="702.22,-135.88 712.69,-134.27 703.5,-129 702.22,-135.88"/>
<text xml:space="preserve" text-anchor="middle" x="659.09" y="-140.45" font-family="Times,serif" font-size="9.00">references</text>
</g>
<!-- route:opcache_status -->
<g id="node19" class="node">
<title>route:opcache_status</title>
<g id="a_node19"><a xlink:href="src/Routes/Route.php" xlink:title="/_opcache/status [dev]">
<ellipse fill="#aed6f1" stroke="black" cx="329.83" cy="-1252" rx="74.11" ry="18"/>
<text xml:space="preserve" text-anchor="middle" x="329.83" y="-1247.55" font-family="Helvetica,sans-Serif" font-size="11.00">/_opcache/status [dev]</text>
</a>
</g>
</g>
<!-- route:opcache_scripts -->
<g id="node20" class="node">
<title>route:opcache_scripts</title>
<g id="a_node20"><a xlink:href="src/Routes/Route.php" xlink:title="/_opcache/scripts [dev]">
<ellipse fill="#aed6f1" stroke="black" cx="329.83" cy="-1306" rx="75.47" ry="18"/>
<text xml:space="preserve" text-anchor="middle" x="329.83" y="-1301.55" font-family="Helvetica,sans-Serif" font-size="11.00">/_opcache/scripts [dev]</text>
</a>
</g>
</g>
<!-- route:styleguide -->
<g id="node21" class="node">
<title>route:styleguide</title>
<g id="a_node21"><a xlink:href="src/Routes/Route.php" xlink:title="/_styleguide [dev]">
<ellipse fill="#aed6f1" stroke="black" cx="329.83" cy="-494" rx="59.68" ry="18"/>
<text xml:space="preserve" text-anchor="middle" x="329.83" y="-489.55" font-family="Helvetica,sans-Serif" font-size="11.00">/_styleguide [dev]</text>
</a>
</g>
</g>
<!-- view:styleguide -->
<g id="node22" class="node">
<title>view:styleguide</title>
<g id="a_node22"><a xlink:href="templates/styleguide.blade.php" xlink:title="styleguide">
<polygon fill="#f9e79f" stroke="black" points="571.32,-512 513.32,-512 513.32,-476 577.32,-476 577.32,-506 571.32,-512"/>
<polyline fill="none" stroke="black" points="571.32,-512 571.32,-506"/>
<polyline fill="none" stroke="black" points="577.32,-506 571.32,-506"/>
<text xml:space="preserve" text-anchor="middle" x="545.32" y="-489.55" font-family="Helvetica,sans-Serif" font-size="11.00">styleguide</text>
</a>
</g>
</g>
<!-- route:styleguide&#45;&gt;view:styleguide -->
<g id="edge7" class="edge">
<title>route:styleguide&#45;&gt;view:styleguide</title>
<path fill="none" stroke="black" d="M389.74,-494C425.24,-494 469.65,-494 501.75,-494"/>
<polygon fill="black" stroke="black" points="501.46,-497.5 511.46,-494 501.46,-490.5 501.46,-497.5"/>
<text xml:space="preserve" text-anchor="middle" x="436.43" y="-495.95" font-family="Times,serif" font-size="9.00">renders</text>
</g>
<!-- view:styleguide&#45;&gt;layout:base -->
<g id="edge29" class="edge">
<title>view:styleguide&#45;&gt;layout:base</title>
<path fill="none" stroke="black" d="M577.65,-494C616.45,-494 684.58,-494 742.95,-494 742.95,-494 742.95,-494 1099.25,-494 1158.72,-494 1191.88,-569.42 1206,-612.58"/>
<polygon fill="black" stroke="black" points="1202.65,-613.6 1208.96,-622.11 1209.33,-611.52 1202.65,-613.6"/>
<text xml:space="preserve" text-anchor="middle" x="939.15" y="-495.95" font-family="Times,serif" font-size="9.00">extends</text>
</g>
<!-- view:styleguide&#45;&gt;component:alert -->
<g id="edge34" class="edge">
<title>view:styleguide&#45;&gt;component:alert</title>
<path fill="none" stroke="black" d="M556.23,-512.09C571.15,-537.51 601.85,-583.33 641.09,-607 660.38,-618.64 685.02,-624.16 705.22,-626.76"/>
<polygon fill="black" stroke="black" points="704.72,-630.23 715.03,-627.82 705.46,-623.27 704.72,-630.23"/>
<text xml:space="preserve" text-anchor="middle" x="659.09" y="-622.86" font-family="Times,serif" font-size="9.00">uses</text>
</g>
<!-- view:styleguide&#45;&gt;component:button -->
<g id="edge30" class="edge">
<title>view:styleguide&#45;&gt;component:button</title>
<path fill="none" stroke="black" d="M550.83,-475.59C560.51,-440.55 586.94,-364.94 641.09,-333.5 660.27,-322.36 685.1,-321.78 705.44,-324.08"/>
<polygon fill="black" stroke="black" points="704.93,-327.54 715.32,-325.49 705.92,-320.61 704.93,-327.54"/>
<text xml:space="preserve" text-anchor="middle" x="659.09" y="-335.45" font-family="Times,serif" font-size="9.00">uses</text>
</g>
<!-- view:styleguide&#45;&gt;component:card -->
<g id="edge33" class="edge">
<title>view:styleguide&#45;&gt;component:card</title>
<path fill="none" stroke="black" d="M551.71,-475.83C566.26,-428.01 607.48,-300.52 641.09,-273.5 659.01,-259.1 684.38,-254.21 705.32,-252.93"/>
<polygon fill="black" stroke="black" points="705.35,-256.43 715.22,-252.6 705.11,-249.44 705.35,-256.43"/>
<text xml:space="preserve" text-anchor="middle" x="659.09" y="-275.45" font-family="Times,serif" font-size="9.00">uses</text>
</g>
<!-- view:styleguide&#45;&gt;component:form&#45;group -->
<g id="edge32" class="edge">
<title>view:styleguide&#45;&gt;component:form&#45;group</title>
<path fill="none" stroke="black" d="M577.58,-511.09C595.7,-520.41 619.19,-531.55 641.09,-539 659.21,-545.17 679.76,-550 697.63,-553.54"/>
<polygon fill="black" stroke="black" points="696.96,-556.97 707.44,-555.4 698.27,-550.1 696.96,-556.97"/>
<text xml:space="preserve" text-anchor="middle" x="659.09" y="-551.01" font-family="Times,serif" font-size="9.00">uses</text>
</g>
<!-- view:styleguide&#45;&gt;component:input -->
<g id="edge31" class="edge">
<title>view:styleguide&#45;&gt;component:input</title>
<path fill="none" stroke="black" d="M568.39,-475.54C586.61,-461.57 613.81,-443.46 641.09,-435.5 661.86,-429.44 686.03,-428.83 705.61,-429.84"/>
<polygon fill="black" stroke="black" points="705.12,-433.32 715.34,-430.52 705.61,-426.33 705.12,-433.32"/>
<text xml:space="preserve" text-anchor="middle" x="659.09" y="-437.45" font-family="Times,serif" font-size="9.00">uses</text>
</g>
<!-- view:styleguide&#45;&gt;route:home -->
<g id="edge35" class="edge">
<title>view:styleguide&#45;&gt;route:home</title>
<path fill="none" stroke="black" d="M555.2,-512.44C571.14,-546.27 604.64,-620.83 623.09,-687 636.16,-733.87 624.68,-749.19 641.09,-795 651.9,-825.18 665.96,-827.44 677.09,-857.5 692.08,-898.01 673.47,-915.61 695.09,-953 699.97,-961.44 707.26,-968.97 714.68,-975.21"/>
<polygon fill="black" stroke="black" points="712.07,-977.62 722.12,-980.98 716.36,-972.09 712.07,-977.62"/>
<text xml:space="preserve" text-anchor="middle" x="659.09" y="-859.45" font-family="Times,serif" font-size="9.00">references</text>
</g>
<!-- route:routes -->
<g id="node23" class="node">
<title>route:routes</title>
<g id="a_node23"><a xlink:href="src/Routes/Route.php" xlink:title="/_routes [dev]">
<ellipse fill="#aed6f1" stroke="black" cx="743.95" cy="-926" rx="48.86" ry="18"/>
<text xml:space="preserve" text-anchor="middle" x="743.95" y="-921.55" font-family="Helvetica,sans-Serif" font-size="11.00">/_routes [dev]</text>
</a>
</g>
</g>
<!-- view:error -->
<g id="node24" class="node">
<title>view:error</title>
<g id="a_node24"><a xlink:href="templates/error.blade.php" xlink:title="error">
<polygon fill="#f9e79f" stroke="black" points="566.32,-39 518.32,-39 518.32,-3 572.32,-3 572.32,-33 566.32,-39"/>
<polyline fill="none" stroke="black" points="566.32,-39 566.32,-33"/>
<polyline fill="none" stroke="black" points="572.32,-33 566.32,-33"/>
<text xml:space="preserve" text-anchor="middle" x="545.32" y="-16.55" font-family="Helvetica,sans-Serif" font-size="11.00">error</text>
</a>
</g>
</g>
<!-- view:error&#45;&gt;layout:base -->
<g id="edge11" class="edge">
<title>view:error&#45;&gt;layout:base</title>
<path fill="none" stroke="black" d="M572.62,-16.39C610.25,-10.21 681.67,0 742.95,0 742.95,0 742.95,0 1099.25,0 1161.99,0 1151.37,-62.17 1170.25,-122 1199.45,-214.5 1210.58,-516.03 1213.45,-612.22"/>
<polygon fill="black" stroke="black" points="1209.95,-612.25 1213.73,-622.14 1216.94,-612.04 1209.95,-612.25"/>
<text xml:space="preserve" text-anchor="middle" x="939.15" y="-1.95" font-family="Times,serif" font-size="9.00">extends</text>
</g>
<!-- view:error&#45;&gt;component:card -->
<g id="edge12" class="edge">
<title>view:error&#45;&gt;component:card</title>
<path fill="none" stroke="black" d="M572.54,-23.52C589.45,-26.56 610.55,-33.25 623.09,-48 652.62,-82.74 621.4,-107.87 641.09,-149 656.39,-180.95 685.25,-209.26 708.36,-228.4"/>
<polygon fill="black" stroke="black" points="706.05,-231.04 716.03,-234.58 710.44,-225.58 706.05,-231.04"/>
<text xml:space="preserve" text-anchor="middle" x="659.09" y="-199.49" font-family="Times,serif" font-size="9.00">uses</text>
</g>
<!-- viewmodel:ErrorViewModel -->
<g id="node25" class="node">
<title>viewmodel:ErrorViewModel</title>
<g id="a_node25"><a xlink:href="src/ViewModels/ErrorViewModel.php" xlink:title="ErrorViewModel">
<path fill="#fadbd8" stroke="black" d="M790.95,-60.73C790.95,-62.53 769.88,-64 743.95,-64 718.01,-64 696.95,-62.53 696.95,-60.73 696.95,-60.73 696.95,-31.27 696.95,-31.27 696.95,-29.47 718.01,-28 743.95,-28 769.88,-28 790.95,-29.47 790.95,-31.27 790.95,-31.27 790.95,-60.73 790.95,-60.73"/>
<path fill="none" stroke="black" d="M790.95,-60.73C790.95,-58.92 769.88,-57.45 743.95,-57.45 718.01,-57.45 696.95,-58.92 696.95,-60.73"/>
<text xml:space="preserve" text-anchor="middle" x="743.95" y="-41.55" font-family="Helvetica,sans-Serif" font-size="11.00">ErrorViewModel</text>
</a>
</g>
</g>
<!-- view:error&#45;&gt;viewmodel:ErrorViewModel -->
<g id="edge13" class="edge">
<title>view:error&#45;&gt;viewmodel:ErrorViewModel</title>
<path fill="none" stroke="black" d="M572.43,-24.32C601.12,-27.97 648.08,-33.94 685.47,-38.69"/>
<polygon fill="black" stroke="black" points="684.87,-42.14 695.23,-39.93 685.75,-35.2 684.87,-42.14"/>
<text xml:space="preserve" text-anchor="middle" x="659.09" y="-39.15" font-family="Times,serif" font-size="9.00">receives</text>
</g>
<!-- test:AboutRouteTest -->
<g id="node30" class="node">
<title>test:AboutRouteTest</title>
<g id="a_node30"><a xlink:href="tests/Integration/AboutRouteTest.php" xlink:title="AboutRouteTest">
<polygon fill="#d6eaf8" stroke="black" points="162.31,-1144 129.93,-1162 65.18,-1162 32.81,-1144 65.18,-1126 129.93,-1126 162.31,-1144"/>
<text xml:space="preserve" text-anchor="middle" x="97.56" y="-1139.55" font-family="Helvetica,sans-Serif" font-size="11.00">AboutRouteTest</text>
</a>
</g>
</g>
<!-- test:AboutRouteTest&#45;&gt;route:about -->
<g id="edge40" class="edge">
<title>test:AboutRouteTest&#45;&gt;route:about</title>
<path fill="none" stroke="black" d="M163.32,-1144C204.25,-1144 255.77,-1144 290.36,-1144"/>
<polygon fill="black" stroke="black" points="290.33,-1147.5 300.33,-1144 290.33,-1140.5 290.33,-1147.5"/>
<text xml:space="preserve" text-anchor="middle" x="224.74" y="-1145.95" font-family="Times,serif" font-size="9.00">covers</text>
</g>
<!-- test:BladeCacheTest -->
<g id="node31" class="node">
<title>test:BladeCacheTest</title>
<g id="a_node31"><a xlink:href="tests/Integration/BladeCacheTest.php" xlink:title="BladeCacheTest">
<polygon fill="#d6eaf8" stroke="black" points="163.35,-1360 130.45,-1378 64.66,-1378 31.77,-1360 64.66,-1342 130.45,-1342 163.35,-1360"/>
<text xml:space="preserve" text-anchor="middle" x="97.56" y="-1355.55" font-family="Helvetica,sans-Serif" font-size="11.00">BladeCacheTest</text>
</a>
</g>
</g>
<!-- test:HOT004Test -->
<g id="node32" class="node">
<title>test:HOT004Test</title>
<g id="a_node32"><a xlink:href="tests/Integration/HOT004Test.php" xlink:title="HOT004Test">
<polygon fill="#d6eaf8" stroke="black" points="598.61,-980 571.97,-998 518.68,-998 492.03,-980 518.68,-962 571.97,-962 598.61,-980"/>
<text xml:space="preserve" text-anchor="middle" x="545.32" y="-975.55" font-family="Helvetica,sans-Serif" font-size="11.00">HOT004Test</text>
</a>
</g>
</g>
<!-- test:HOT004Test&#45;&gt;route:home -->
<g id="edge41" class="edge">
<title>test:HOT004Test&#45;&gt;route:home</title>
<path fill="none" stroke="black" d="M594.42,-983.42C628.6,-985.86 673.84,-989.08 705.37,-991.32"/>
<polygon fill="black" stroke="black" points="705,-994.81 715.23,-992.03 705.5,-987.82 705,-994.81"/>
<text xml:space="preserve" text-anchor="middle" x="659.09" y="-991.02" font-family="Times,serif" font-size="9.00">covers</text>
</g>
<!-- test:HomeControllerTest -->
<g id="node33" class="node">
<title>test:HomeControllerTest</title>
<g id="a_node33"><a xlink:href="tests/Integration/HomeControllerTest.php" xlink:title="HomeControllerTest">
<polygon fill="#d6eaf8" stroke="black" points="623.09,-1088 584.21,-1106 506.44,-1106 467.55,-1088 506.44,-1070 584.21,-1070 623.09,-1088"/>
<text xml:space="preserve" text-anchor="middle" x="545.32" y="-1083.55" font-family="Helvetica,sans-Serif" font-size="11.00">HomeControllerTest</text>
</a>
</g>
</g>
<!-- test:HomeControllerTest&#45;&gt;route:home -->
<g id="edge43" class="edge">
<title>test:HomeControllerTest&#45;&gt;route:home</title>
<path fill="none" stroke="black" d="M592.29,-1073.28C602.56,-1069.59 613.3,-1065.42 623.09,-1061 655.08,-1046.56 689.91,-1026.57 713.74,-1012.19"/>
<polygon fill="black" stroke="black" points="715.54,-1015.19 722.26,-1007 711.9,-1009.22 715.54,-1015.19"/>
<text xml:space="preserve" text-anchor="middle" x="659.09" y="-1053.29" font-family="Times,serif" font-size="9.00">covers</text>
</g>
<!-- test:HomeControllerTest&#45;&gt;controller:HomeController -->
<g id="edge42" class="edge">
<title>test:HomeControllerTest&#45;&gt;controller:HomeController</title>
<path fill="none" stroke="black" d="M605.48,-1079.36C628,-1075.73 653.83,-1071.15 677.09,-1066 748.45,-1050.2 829.4,-1027.04 881.99,-1011.29"/>
<polygon fill="black" stroke="black" points="882.75,-1014.71 891.31,-1008.48 880.73,-1008.01 882.75,-1014.71"/>
<text xml:space="preserve" text-anchor="middle" x="743.95" y="-1063.44" font-family="Times,serif" font-size="9.00">covers</text>
</g>
<!-- test:LoginRouteTest -->
<g id="node34" class="node">
<title>test:LoginRouteTest</title>
<g id="a_node34"><a xlink:href="tests/Integration/LoginRouteTest.php" xlink:title="LoginRouteTest">
<polygon fill="#d6eaf8" stroke="black" points="608.51,-824 576.91,-842 513.73,-842 482.13,-824 513.73,-806 576.91,-806 608.51,-824"/>
<text xml:space="preserve" text-anchor="middle" x="545.32" y="-819.55" font-family="Helvetica,sans-Serif" font-size="11.00">LoginRouteTest</text>
</a>
</g>
</g>
<!-- test:LoginRouteTest&#45;&gt;route:login -->
<g id="edge44" class="edge">
<title>test:LoginRouteTest&#45;&gt;route:login</title>
<path fill="none" stroke="black" d="M581.93,-808.43C618.54,-792.41 675.05,-767.7 710.47,-752.21"/>
<polygon fill="black" stroke="black" points="711.59,-755.53 719.35,-748.32 708.79,-749.12 711.59,-755.53"/>
<text xml:space="preserve" text-anchor="middle" x="659.09" y="-782.95" font-family="Times,serif" font-size="9.00">covers</text>
</g>
<!-- test:OpcacheScriptsRouteTest -->
<g id="node35" class="node">
<title>test:OpcacheScriptsRouteTest</title>
<g id="a_node35"><a xlink:href="tests/Integration/OpcacheScriptsRouteTest.php" xlink:title="OpcacheScriptsRouteTest">
<polygon fill="#d6eaf8" stroke="black" points="195.12,-1306 146.34,-1324 48.78,-1324 0,-1306 48.78,-1288 146.34,-1288 195.12,-1306"/>
<text xml:space="preserve" text-anchor="middle" x="97.56" y="-1301.55" font-family="Helvetica,sans-Serif" font-size="11.00">OpcacheScriptsRouteTest</text>
</a>
</g>
</g>
<!-- test:OpcacheScriptsRouteTest&#45;&gt;route:opcache_scripts -->
<g id="edge45" class="edge">
<title>test:OpcacheScriptsRouteTest&#45;&gt;route:opcache_scripts</title>
<path fill="none" stroke="black" d="M196.55,-1306C211.87,-1306 227.59,-1306 242.62,-1306"/>
<polygon fill="black" stroke="black" points="242.44,-1309.5 252.44,-1306 242.44,-1302.5 242.44,-1309.5"/>
<text xml:space="preserve" text-anchor="middle" x="224.74" y="-1307.95" font-family="Times,serif" font-size="9.00">covers</text>
</g>
<!-- test:OpcacheStatusRouteTest -->
<g id="node36" class="node">
<title>test:OpcacheStatusRouteTest</title>
<g id="a_node36"><a xlink:href="tests/Integration/OpcacheStatusRouteTest.php" xlink:title="OpcacheStatusRouteTest">
<polygon fill="#d6eaf8" stroke="black" points="193.55,-1252 145.56,-1270 49.56,-1270 1.56,-1252 49.56,-1234 145.56,-1234 193.55,-1252"/>
<text xml:space="preserve" text-anchor="middle" x="97.56" y="-1247.55" font-family="Helvetica,sans-Serif" font-size="11.00">OpcacheStatusRouteTest</text>
</a>
</g>
</g>
<!-- test:OpcacheStatusRouteTest&#45;&gt;route:opcache_status -->
<g id="edge46" class="edge">
<title>test:OpcacheStatusRouteTest&#45;&gt;route:opcache_status</title>
<path fill="none" stroke="black" d="M194.88,-1252C211.15,-1252 227.93,-1252 243.87,-1252"/>
<polygon fill="black" stroke="black" points="243.81,-1255.5 253.81,-1252 243.81,-1248.5 243.81,-1255.5"/>
<text xml:space="preserve" text-anchor="middle" x="224.74" y="-1253.95" font-family="Times,serif" font-size="9.00">covers</text>
</g>
<!-- test:RegisterRouteTest -->
<g id="node37" class="node">
<title>test:RegisterRouteTest</title>
<g id="a_node37"><a xlink:href="tests/Integration/RegisterRouteTest.php" xlink:title="RegisterRouteTest">
<polygon fill="#d6eaf8" stroke="black" points="618.4,-75 581.86,-93 508.78,-93 472.24,-75 508.78,-57 581.86,-57 618.4,-75"/>
<text xml:space="preserve" text-anchor="middle" x="545.32" y="-70.55" font-family="Helvetica,sans-Serif" font-size="11.00">RegisterRouteTest</text>
</a>
</g>
</g>
<!-- test:RegisterRouteTest&#45;&gt;route:register -->
<g id="edge47" class="edge">
<title>test:RegisterRouteTest&#45;&gt;route:register</title>
<path fill="none" stroke="black" d="M601.84,-83.62C625.53,-88.28 653.16,-95.07 677.09,-104.5 689.45,-109.37 702.23,-116.33 713.21,-123"/>
<polygon fill="black" stroke="black" points="711.11,-125.82 721.44,-128.17 714.83,-119.89 711.11,-125.82"/>
<text xml:space="preserve" text-anchor="middle" x="659.09" y="-106.45" font-family="Times,serif" font-size="9.00">covers</text>
</g>
<!-- test:RoutesRouteTest -->
<g id="node38" class="node">
<title>test:RoutesRouteTest</title>
<g id="a_node38"><a xlink:href="tests/Integration/RoutesRouteTest.php" xlink:title="RoutesRouteTest">
<polygon fill="#d6eaf8" stroke="black" points="614.24,-926 579.78,-944 510.86,-944 476.41,-926 510.86,-908 579.78,-908 614.24,-926"/>
<text xml:space="preserve" text-anchor="middle" x="545.32" y="-921.55" font-family="Helvetica,sans-Serif" font-size="11.00">RoutesRouteTest</text>
</a>
</g>
</g>
<!-- test:RoutesRouteTest&#45;&gt;route:home -->
<g id="edge49" class="edge">
<title>test:RoutesRouteTest&#45;&gt;route:home</title>
<path fill="none" stroke="black" d="M587.54,-940.26C623.46,-952.68 674.93,-970.48 708.65,-982.14"/>
<polygon fill="black" stroke="black" points="707.32,-985.38 717.92,-985.34 709.61,-978.77 707.32,-985.38"/>
<text xml:space="preserve" text-anchor="middle" x="659.09" y="-972.01" font-family="Times,serif" font-size="9.00">covers</text>
</g>
<!-- test:RoutesRouteTest&#45;&gt;route:routes -->
<g id="edge48" class="edge">
<title>test:RoutesRouteTest&#45;&gt;route:routes</title>
<path fill="none" stroke="black" d="M615.09,-926C637.34,-926 661.81,-926 683.34,-926"/>
<polygon fill="black" stroke="black" points="683.12,-929.5 693.12,-926 683.12,-922.5 683.12,-929.5"/>
<text xml:space="preserve" text-anchor="middle" x="659.09" y="-927.95" font-family="Times,serif" font-size="9.00">covers</text>
</g>
<!-- test:StyleguideRouteTest -->
<g id="node39" class="node">
<title>test:StyleguideRouteTest</title>
<g id="a_node39"><a xlink:href="tests/Integration/StyleguideRouteTest.php" xlink:title="StyleguideRouteTest">
<polygon fill="#d6eaf8" stroke="black" points="177.41,-494 137.48,-512 57.63,-512 17.71,-494 57.63,-476 137.48,-476 177.41,-494"/>
<text xml:space="preserve" text-anchor="middle" x="97.56" y="-489.55" font-family="Helvetica,sans-Serif" font-size="11.00">StyleguideRouteTest</text>
</a>
</g>
</g>
<!-- test:StyleguideRouteTest&#45;&gt;route:styleguide -->
<g id="edge50" class="edge">
<title>test:StyleguideRouteTest&#45;&gt;route:styleguide</title>
<path fill="none" stroke="black" d="M178.45,-494C204.47,-494 233.15,-494 258.43,-494"/>
<polygon fill="black" stroke="black" points="258.27,-497.5 268.27,-494 258.27,-490.5 258.27,-497.5"/>
<text xml:space="preserve" text-anchor="middle" x="224.74" y="-495.95" font-family="Times,serif" font-size="9.00">covers</text>
</g>
<!-- test:TRACE001Test -->
<g id="node40" class="node">
<title>test:TRACE001Test</title>
<g id="a_node40"><a xlink:href="tests/Integration/TRACE001Test.php" xlink:title="TRACE001Test">
<polygon fill="#d6eaf8" stroke="black" points="609.03,-1034 577.18,-1052 513.47,-1052 481.61,-1034 513.47,-1016 577.18,-1016 609.03,-1034"/>
<text xml:space="preserve" text-anchor="middle" x="545.32" y="-1029.55" font-family="Helvetica,sans-Serif" font-size="11.00">TRACE001Test</text>
</a>
</g>
</g>
<!-- test:TRACE001Test&#45;&gt;route:home -->
<g id="edge51" class="edge">
<title>test:TRACE001Test&#45;&gt;route:home</title>
<path fill="none" stroke="black" d="M592.92,-1024.52C627.71,-1017.44 674.59,-1007.91 706.63,-1001.39"/>
<polygon fill="black" stroke="black" points="707.12,-1004.86 716.23,-999.44 705.73,-998 707.12,-1004.86"/>
<text xml:space="preserve" text-anchor="middle" x="659.09" y="-1015.95" font-family="Times,serif" font-size="9.00">covers</text>
</g>
</g>
</svg>
