<?xml version="1.0" encoding="UTF-8" standalone="no"?>
<!DOCTYPE svg PUBLIC "-//W3C//DTD SVG 1.1//EN"
 "http://www.w3.org/Graphics/SVG/1.1/DTD/svg11.dtd">
<!-- Generated by graphviz version 13.0.1 (20250615.1724)
 -->
<!-- Title: inventory Pages: 1 -->
<svg width="1262pt" height="1453pt"
 viewBox="0.00 0.00 1262.00 1453.00" xmlns="http://www.w3.org/2000/svg" xmlns:xlink="http://www.w3.org/1999/xlink">
<g id="graph0" class="graph" transform="scale(1 1) rotate(0) translate(4 1449)">
<title>inventory</title>
<polygon fill="white" stroke="none" points="-4,4 -4,-1449 1258.28,-1449 1258.28,4 -4,4"/>
<!-- layout:base -->
<g id="node1" class="node">
<title>layout:base</title>
<g id="a_node1"><a xlink:href="templates/base.blade.php" xlink:title="base">
<polygon fill="#d7bde2" stroke="black" points="1254.28,-621 1212.28,-621 1212.28,-625 1200.28,-625 1200.28,-585 1254.28,-585 1254.28,-621"/>
<polyline fill="none" stroke="black" points="1200.28,-621 1212.28,-621"/>
<text xml:space="preserve" text-anchor="middle" x="1227.28" y="-598.55" font-family="Helvetica,sans-Serif" font-size="11.00">base</text>
</a>
</g>
</g>
<!-- component:alert -->
<g id="node2" class="node">
<title>component:alert</title>
<g id="a_node2"><a xlink:href="templates/components/alert.blade.php" xlink:title="alert">
<polygon fill="#f5cba7" stroke="black" points="776.97,-418 722.97,-418 722.97,-414 718.97,-414 718.97,-410 722.97,-410 722.97,-390 718.97,-390 718.97,-386 722.97,-386 722.97,-382 776.97,-382 776.97,-418"/>
<polyline fill="none" stroke="black" points="722.97,-414 726.97,-414 726.97,-410 722.97,-410"/>
<polyline fill="none" stroke="black" points="722.97,-390 726.97,-390 726.97,-386 722.97,-386"/>
<text xml:space="preserve" text-anchor="middle" x="749.97" y="-395.55" font-family="Helvetica,sans-Serif" font-size="11.00">alert</text>
</a>
</g>
</g>
<!-- ui_enum:AlertVariant -->
<g id="node27" class="node">
<title>ui_enum:AlertVariant</title>
<g id="a_node27"><a xlink:href="src/UI/AlertVariant.php" xlink:title="AlertVariant">
<polygon fill="#d5f5e3" stroke="black" points="951.19,-418 889.74,-400 951.19,-382 1012.63,-400 951.19,-418"/>
<text xml:space="preserve" text-anchor="middle" x="951.19" y="-395.55" font-family="Helvetica,sans-Serif" font-size="11.00">AlertVariant</text>
</a>
</g>
</g>
<!-- component:alert&#45;&gt;ui_enum:AlertVariant -->
<g id="edge37" class="edge">
<title>component:alert&#45;&gt;ui_enum:AlertVariant</title>
<path fill="none" stroke="black" d="M777.42,-400C802.83,-400 842.38,-400 877.23,-400"/>
<polygon fill="black" stroke="black" points="876.85,-403.5 886.85,-400 876.85,-396.5 876.85,-403.5"/>
<text xml:space="preserve" text-anchor="middle" x="843.47" y="-401.95" font-family="Times,serif" font-size="9.00">uses_enum</text>
</g>
<!-- component:button -->
<g id="node3" class="node">
<title>component:button</title>
<g id="a_node3"><a xlink:href="templates/components/button.blade.php" xlink:title="button">
<polygon fill="#f5cba7" stroke="black" points="776.97,-472 722.97,-472 722.97,-468 718.97,-468 718.97,-464 722.97,-464 722.97,-444 718.97,-444 718.97,-440 722.97,-440 722.97,-436 776.97,-436 776.97,-472"/>
<polyline fill="none" stroke="black" points="722.97,-468 726.97,-468 726.97,-464 722.97,-464"/>
<polyline fill="none" stroke="black" points="722.97,-444 726.97,-444 726.97,-440 722.97,-440"/>
<text xml:space="preserve" text-anchor="middle" x="749.97" y="-449.55" font-family="Helvetica,sans-Serif" font-size="11.00">button</text>
</a>
</g>
</g>
<!-- ui_enum:ButtonVariant -->
<g id="node28" class="node">
<title>ui_enum:ButtonVariant</title>
<g id="a_node28"><a xlink:href="src/UI/ButtonVariant.php" xlink:title="ButtonVariant">
<polygon fill="#d5f5e3" stroke="black" points="951.19,-472 882.09,-454 951.19,-436 1020.28,-454 951.19,-472"/>
<text xml:space="preserve" text-anchor="middle" x="951.19" y="-449.55" font-family="Helvetica,sans-Serif" font-size="11.00">ButtonVariant</text>
</a>
</g>
</g>
<!-- component:button&#45;&gt;ui_enum:ButtonVariant -->
<g id="edge38" class="edge">
<title>component:button&#45;&gt;ui_enum:ButtonVariant</title>
<path fill="none" stroke="black" d="M777.42,-454C800.81,-454 836.18,-454 868.84,-454"/>
<polygon fill="black" stroke="black" points="868.75,-457.5 878.75,-454 868.75,-450.5 868.75,-457.5"/>
<text xml:space="preserve" text-anchor="middle" x="843.47" y="-455.95" font-family="Times,serif" font-size="9.00">uses_enum</text>
</g>
<!-- ui_enum:ButtonSize -->
<g id="node29" class="node">
<title>ui_enum:ButtonSize</title>
<g id="a_node29"><a xlink:href="src/UI/ButtonSize.php" xlink:title="ButtonSize">
<polygon fill="#d5f5e3" stroke="black" points="951.19,-526 892.93,-508 951.19,-490 1009.44,-508 951.19,-526"/>
<text xml:space="preserve" text-anchor="middle" x="951.19" y="-503.55" font-family="Helvetica,sans-Serif" font-size="11.00">ButtonSize</text>
</a>
</g>
</g>
<!-- component:button&#45;&gt;ui_enum:ButtonSize -->
<g id="edge39" class="edge">
<title>component:button&#45;&gt;ui_enum:ButtonSize</title>
<path fill="none" stroke="black" d="M777.42,-461.17C810.82,-470.22 868.69,-485.91 908.17,-496.61"/>
<polygon fill="black" stroke="black" points="907,-499.92 917.57,-499.16 908.83,-493.16 907,-499.92"/>
<text xml:space="preserve" text-anchor="middle" x="843.47" y="-486.18" font-family="Times,serif" font-size="9.00">uses_enum</text>
</g>
<!-- component:card -->
<g id="node4" class="node">
<title>component:card</title>
<g id="a_node4"><a xlink:href="templates/components/card.blade.php" xlink:title="card">
<polygon fill="#f5cba7" stroke="black" points="776.97,-325 722.97,-325 722.97,-321 718.97,-321 718.97,-317 722.97,-317 722.97,-297 718.97,-297 718.97,-293 722.97,-293 722.97,-289 776.97,-289 776.97,-325"/>
<polyline fill="none" stroke="black" points="722.97,-321 726.97,-321 726.97,-317 722.97,-317"/>
<polyline fill="none" stroke="black" points="722.97,-297 726.97,-297 726.97,-293 722.97,-293"/>
<text xml:space="preserve" text-anchor="middle" x="749.97" y="-302.55" font-family="Helvetica,sans-Serif" font-size="11.00">card</text>
</a>
</g>
</g>
<!-- component:form&#45;group -->
<g id="node5" class="node">
<title>component:form&#45;group</title>
<g id="a_node5"><a xlink:href="templates/components/form-group.blade.php" xlink:title="form&#45;group">
<polygon fill="#f5cba7" stroke="black" points="784.59,-574 715.34,-574 715.34,-570 711.34,-570 711.34,-566 715.34,-566 715.34,-546 711.34,-546 711.34,-542 715.34,-542 715.34,-538 784.59,-538 784.59,-574"/>
<polyline fill="none" stroke="black" points="715.34,-570 719.34,-570 719.34,-566 715.34,-566"/>
<polyline fill="none" stroke="black" points="715.34,-546 719.34,-546 719.34,-542 715.34,-542"/>
<text xml:space="preserve" text-anchor="middle" x="749.97" y="-551.55" font-family="Helvetica,sans-Serif" font-size="11.00">form&#45;group</text>
</a>
</g>
</g>
<!-- component:input -->
<g id="node6" class="node">
<title>component:input</title>
<g id="a_node6"><a xlink:href="templates/components/input.blade.php" xlink:title="input">
<polygon fill="#f5cba7" stroke="black" points="776.97,-676 722.97,-676 722.97,-672 718.97,-672 718.97,-668 722.97,-668 722.97,-648 718.97,-648 718.97,-644 722.97,-644 722.97,-640 776.97,-640 776.97,-676"/>
<polyline fill="none" stroke="black" points="722.97,-672 726.97,-672 726.97,-668 722.97,-668"/>
<polyline fill="none" stroke="black" points="722.97,-648 726.97,-648 726.97,-644 722.97,-644"/>
<text xml:space="preserve" text-anchor="middle" x="749.97" y="-653.55" font-family="Helvetica,sans-Serif" font-size="11.00">input</text>
</a>
</g>
</g>
<!-- ui_enum:InputType -->
<g id="node30" class="node">
<title>ui_enum:InputType</title>
<g id="a_node30"><a xlink:href="src/UI/InputType.php" xlink:title="InputType">
<polygon fill="#d5f5e3" stroke="black" points="951.19,-676 896.76,-658 951.19,-640 1005.61,-658 951.19,-676"/>
<text xml:space="preserve" text-anchor="middle" x="951.19" y="-653.55" font-family="Helvetica,sans-Serif" font-size="11.00">InputType</text>
</a>
</g>
</g>
<!-- component:input&#45;&gt;ui_enum:InputType -->
<g id="edge40" class="edge">
<title>component:input&#45;&gt;ui_enum:InputType</title>
<path fill="none" stroke="black" d="M777.42,-658C804.57,-658 847.87,-658 884.33,-658"/>
<polygon fill="black" stroke="black" points="883.88,-661.5 893.88,-658 883.88,-654.5 883.88,-661.5"/>
<text xml:space="preserve" text-anchor="middle" x="843.47" y="-659.95" font-family="Times,serif" font-size="9.00">uses_enum</text>
</g>
<!-- model:Migration -->
<g id="node7" class="node">
<title>model:Migration</title>
<g id="a_node7"><a xlink:href="src/Tables/Migration.php" xlink:title="Migration">
<path fill="#d5dbdb" stroke="black" d="M127.68,-1279.73C127.68,-1281.53 114.18,-1283 97.56,-1283 80.94,-1283 67.43,-1281.53 67.43,-1279.73 67.43,-1279.73 67.43,-1250.27 67.43,-1250.27 67.43,-1248.47 80.94,-1247 97.56,-1247 114.18,-1247 127.68,-1248.47 127.68,-1250.27 127.68,-1250.27 127.68,-1279.73 127.68,-1279.73"/>
<path fill="none" stroke="black" d="M127.68,-1279.73C127.68,-1277.92 114.18,-1276.45 97.56,-1276.45 80.94,-1276.45 67.43,-1277.92 67.43,-1279.73"/>
<text xml:space="preserve" text-anchor="middle" x="97.56" y="-1260.55" font-family="Helvetica,sans-Serif" font-size="11.00">Migration</text>
</a>
</g>
</g>
<!-- model:User -->
<g id="node8" class="node">
<title>model:User</title>
<g id="a_node8"><a xlink:href="src/Tables/User.php" xlink:title="User">
<path fill="#d5dbdb" stroke="black" d="M1137.28,-193.73C1137.28,-195.53 1125.18,-197 1110.28,-197 1095.39,-197 1083.28,-195.53 1083.28,-193.73 1083.28,-193.73 1083.28,-164.27 1083.28,-164.27 1083.28,-162.47 1095.39,-161 1110.28,-161 1125.18,-161 1137.28,-162.47 1137.28,-164.27 1137.28,-164.27 1137.28,-193.73 1137.28,-193.73"/>
<path fill="none" stroke="black" d="M1137.28,-193.73C1137.28,-191.92 1125.18,-190.45 1110.28,-190.45 1095.39,-190.45 1083.28,-191.92 1083.28,-193.73"/>
<text xml:space="preserve" text-anchor="middle" x="1110.28" y="-174.55" font-family="Helvetica,sans-Serif" font-size="11.00">User</text>
</a>
</g>
</g>
<!-- route:home -->
<g id="node9" class="node">
<title>route:home</title>
<g id="a_node9"><a xlink:href="src/Routes/Route.php" xlink:title="/">
<ellipse fill="#aed6f1" stroke="black" cx="749.97" cy="-1096" rx="27" ry="18"/>
<text xml:space="preserve" text-anchor="middle" x="749.97" y="-1091.55" font-family="Helvetica,sans-Serif" font-size="11.00">/</text>
</a>
</g>
</g>
<!-- controller:HomeController -->
<g id="node10" class="node">
<title>controller:HomeController</title>
<g id="a_node10"><a xlink:href="src/Controllers/HomeController.php" xlink:title="HomeController">
<polygon fill="#a9dfbf" stroke="black" points="997.44,-1067 904.94,-1067 904.94,-1031 997.44,-1031 997.44,-1067"/>
<text xml:space="preserve" text-anchor="middle" x="951.19" y="-1044.55" font-family="Helvetica,sans-Serif" font-size="11.00">HomeController</text>
</a>
</g>
</g>
<!-- route:home&#45;&gt;controller:HomeController -->
<g id="edge1" class="edge">
<title>route:home&#45;&gt;controller:HomeController</title>
<path fill="none" stroke="black" d="M775.79,-1090.14C805.03,-1083.24 854.53,-1071.57 893.34,-1062.41"/>
<polygon fill="black" stroke="black" points="894.09,-1065.83 903.02,-1060.13 892.48,-1059.02 894.09,-1065.83"/>
<text xml:space="preserve" text-anchor="middle" x="843.47" y="-1080.04" font-family="Times,serif" font-size="9.00">handled_by</text>
</g>
<!-- view:home -->
<g id="node11" class="node">
<title>view:home</title>
<g id="a_node11"><a xlink:href="templates/home.blade.php" xlink:title="home">
<polygon fill="#f9e79f" stroke="black" points="1131.28,-956 1083.28,-956 1083.28,-920 1137.28,-920 1137.28,-950 1131.28,-956"/>
<polyline fill="none" stroke="black" points="1131.28,-956 1131.28,-950"/>
<polyline fill="none" stroke="black" points="1137.28,-950 1131.28,-950"/>
<text xml:space="preserve" text-anchor="middle" x="1110.28" y="-933.55" font-family="Helvetica,sans-Serif" font-size="11.00">home</text>
</a>
</g>
</g>
<!-- controller:HomeController&#45;&gt;view:home -->
<g id="edge2" class="edge">
<title>controller:HomeController&#45;&gt;view:home</title>
<path fill="none" stroke="black" d="M978.13,-1030.67C1004.28,-1012.19 1044.83,-983.54 1073.92,-962.99"/>
<polygon fill="black" stroke="black" points="1075.92,-965.86 1082.07,-957.23 1071.88,-960.14 1075.92,-965.86"/>
<text xml:space="preserve" text-anchor="middle" x="1051.78" y="-988.8" font-family="Times,serif" font-size="9.00">renders</text>
</g>
<!-- view:home&#45;&gt;layout:base -->
<g id="edge14" class="edge">
<title>view:home&#45;&gt;layout:base</title>
<path fill="none" stroke="black" d="M1136.66,-919.77C1152.37,-907.08 1171.52,-888.74 1182.28,-868 1222.66,-790.17 1227.46,-683.74 1227.16,-632.69"/>
<polygon fill="black" stroke="black" points="1230.67,-632.7 1227.03,-622.75 1223.67,-632.8 1230.67,-632.7"/>
<text xml:space="preserve" text-anchor="middle" x="1168.78" y="-904.33" font-family="Times,serif" font-size="9.00">extends</text>
</g>
<!-- route:about -->
<g id="node12" class="node">
<title>route:about</title>
<g id="a_node12"><a xlink:href="src/Routes/Route.php" xlink:title="/about">
<ellipse fill="#aed6f1" stroke="black" cx="329.83" cy="-1211" rx="27.66" ry="18"/>
<text xml:space="preserve" text-anchor="middle" x="329.83" y="-1206.55" font-family="Helvetica,sans-Serif" font-size="11.00">/about</text>
</a>
</g>
</g>
<!-- view:about -->
<g id="node13" class="node">
<title>view:about</title>
<g id="a_node13"><a xlink:href="templates/about.blade.php" xlink:title="about">
<polygon fill="#f9e79f" stroke="black" points="566.32,-1229 518.32,-1229 518.32,-1193 572.32,-1193 572.32,-1223 566.32,-1229"/>
<polyline fill="none" stroke="black" points="566.32,-1229 566.32,-1223"/>
<polyline fill="none" stroke="black" points="572.32,-1223 566.32,-1223"/>
<text xml:space="preserve" text-anchor="middle" x="545.32" y="-1206.55" font-family="Helvetica,sans-Serif" font-size="11.00">about</text>
</a>
</g>
</g>
<!-- route:about&#45;&gt;view:about -->
<g id="edge3" class="edge">
<title>route:about&#45;&gt;view:about</title>
<path fill="none" stroke="black" d="M357.87,-1211C395.51,-1211 463.87,-1211 506.53,-1211"/>
<polygon fill="black" stroke="black" points="506.32,-1214.5 516.32,-1211 506.32,-1207.5 506.32,-1214.5"/>
<text xml:space="preserve" text-anchor="middle" x="436.43" y="-1212.95" font-family="Times,serif" font-size="9.00">renders</text>
</g>
<!-- view:about&#45;&gt;layout:base -->
<g id="edge9" class="edge">
<title>view:about&#45;&gt;layout:base</title>
<path fill="none" stroke="black" d="M572.55,-1211C611.18,-1211 685.64,-1211 748.97,-1211 748.97,-1211 748.97,-1211 1111.28,-1211 1170.87,-1211 1213.56,-754.27 1223.88,-632.52"/>
<polygon fill="black" stroke="black" points="1227.35,-632.96 1224.7,-622.7 1220.37,-632.38 1227.35,-632.96"/>
<text xml:space="preserve" text-anchor="middle" x="951.19" y="-1212.95" font-family="Times,serif" font-size="9.00">extends</text>
</g>
<!-- view:about&#45;&gt;route:home -->
<g id="edge10" class="edge">
<title>view:about&#45;&gt;route:home</title>
<path fill="none" stroke="black" d="M572.64,-1203.69C587.81,-1199.01 607,-1192.26 623.09,-1184 660.16,-1164.98 698.87,-1136.39 723.41,-1117"/>
<polygon fill="black" stroke="black" points="725.59,-1119.74 731.22,-1110.76 721.22,-1114.27 725.59,-1119.74"/>
<text xml:space="preserve" text-anchor="middle" x="659.09" y="-1175.91" font-family="Times,serif" font-size="9.00">references</text>
</g>
<!-- route:login -->
<g id="node14" class="node">
<title>route:login</title>
<g id="a_node14"><a xlink:href="src/Routes/Route.php" xlink:title="/login">
<ellipse fill="#aed6f1" stroke="black" cx="749.97" cy="-801" rx="27" ry="18"/>
<text xml:space="preserve" text-anchor="middle" x="749.97" y="-796.55" font-family="Helvetica,sans-Serif" font-size="11.00">/login</text>
</a>
</g>
</g>
<!-- view:login -->
<g id="node15" class="node">
<title>view:login</title>
<g id="a_node15"><a xlink:href="templates/login.blade.php" xlink:title="login">
<polygon fill="#f9e79f" stroke="black" points="566.32,-795 518.32,-795 518.32,-759 572.32,-759 572.32,-789 566.32,-795"/>
<polyline fill="none" stroke="black" points="566.32,-795 566.32,-789"/>
<polyline fill="none" stroke="black" points="572.32,-789 566.32,-789"/>
<text xml:space="preserve" text-anchor="middle" x="545.32" y="-772.55" font-family="Helvetica,sans-Serif" font-size="11.00">login</text>
</a>
</g>
</g>
<!-- route:login&#45;&gt;view:login -->
<g id="edge4" class="edge">
<title>route:login&#45;&gt;view:login</title>
<path fill="none" stroke="black" d="M723.11,-797.94C687.9,-793.77 624.63,-786.27 584.1,-781.47"/>
<polygon fill="black" stroke="black" points="584.66,-778.02 574.32,-780.32 583.84,-784.97 584.66,-778.02"/>
<text xml:space="preserve" text-anchor="middle" x="659.09" y="-793.81" font-family="Times,serif" font-size="9.00">renders</text>
</g>
<!-- view:login&#45;&gt;layout:base -->
<g id="edge15" class="edge">
<title>view:login&#45;&gt;layout:base</title>
<path fill="none" stroke="black" d="M572.64,-794.09C610.17,-816.77 681.97,-854 748.97,-854 748.97,-854 748.97,-854 1111.28,-854 1207.62,-854 1223.57,-699.28 1225.98,-632.79"/>
<polygon fill="black" stroke="black" points="1229.47,-633.06 1226.25,-622.97 1222.48,-632.87 1229.47,-633.06"/>
<text xml:space="preserve" text-anchor="middle" x="951.19" y="-855.95" font-family="Times,serif" font-size="9.00">extends</text>
</g>
<!-- view:login&#45;&gt;component:button -->
<g id="edge19" class="edge">
<title>view:login&#45;&gt;component:button</title>
<path fill="none" stroke="black" d="M552.84,-758.77C565.89,-723.86 597.74,-646.2 641.09,-591.5 654.11,-575.06 663.74,-577.17 677.09,-561 687.48,-548.42 686.32,-542.76 695.09,-529 705.39,-512.85 717.8,-495.45 728.12,-481.47"/>
<polygon fill="black" stroke="black" points="730.8,-483.73 733.97,-473.62 725.19,-479.55 730.8,-483.73"/>
<text xml:space="preserve" text-anchor="middle" x="659.09" y="-593.45" font-family="Times,serif" font-size="9.00">uses</text>
</g>
<!-- view:login&#45;&gt;component:card -->
<g id="edge16" class="edge">
<title>view:login&#45;&gt;component:card</title>
<path fill="none" stroke="black" d="M547.9,-758.64C552.96,-709.52 572.73,-573.01 641.09,-487.5 652.73,-472.94 666.39,-481.26 677.09,-466 701.27,-431.54 677.24,-411.13 695.09,-373 701.72,-358.84 712.07,-345.11 721.92,-333.88"/>
<polygon fill="black" stroke="black" points="724.45,-336.31 728.62,-326.57 719.29,-331.58 724.45,-336.31"/>
<text xml:space="preserve" text-anchor="middle" x="659.09" y="-489.45" font-family="Times,serif" font-size="9.00">uses</text>
</g>
<!-- view:login&#45;&gt;component:form&#45;group -->
<g id="edge17" class="edge">
<title>view:login&#45;&gt;component:form&#45;group</title>
<path fill="none" stroke="black" d="M566.21,-758.56C585.09,-741.28 614.46,-714.97 641.09,-693.5 656.56,-681.03 664.29,-682.2 677.09,-667 688.61,-653.32 685.84,-646.31 695.09,-631 704.99,-614.61 717.38,-597.19 727.78,-583.26"/>
<polygon fill="black" stroke="black" points="730.45,-585.53 733.69,-575.45 724.87,-581.31 730.45,-585.53"/>
<text xml:space="preserve" text-anchor="middle" x="659.09" y="-695.45" font-family="Times,serif" font-size="9.00">uses</text>
</g>
<!-- view:login&#45;&gt;component:input -->
<g id="edge18" class="edge">
<title>view:login&#45;&gt;component:input</title>
<path fill="none" stroke="black" d="M572.64,-773.48C600.37,-768.82 644.46,-758.65 677.09,-738 698.52,-724.43 717.45,-702.74 730.49,-685.36"/>
<polygon fill="black" stroke="black" points="733.19,-687.61 736.22,-677.46 727.52,-683.5 733.19,-687.61"/>
<text xml:space="preserve" text-anchor="middle" x="659.09" y="-756.46" font-family="Times,serif" font-size="9.00">uses</text>
</g>
<!-- view:login&#45;&gt;route:home -->
<g id="edge21" class="edge">
<title>view:login&#45;&gt;route:home</title>
<path fill="none" stroke="black" d="M569.3,-795.24C586.95,-810.58 610.37,-834.1 623.09,-860 644.35,-903.28 621.97,-922.73 641.09,-967 651.59,-991.32 664.35,-991.28 677.09,-1014.5 688.15,-1034.66 680.48,-1045.24 695.09,-1063 700.97,-1070.15 708.82,-1076.17 716.72,-1081.03"/>
<polygon fill="black" stroke="black" points="714.83,-1083.98 725.26,-1085.82 718.25,-1077.88 714.83,-1083.98"/>
<text xml:space="preserve" text-anchor="middle" x="659.09" y="-1016.45" font-family="Times,serif" font-size="9.00">references</text>
</g>
<!-- view:login&#45;&gt;route:login -->
<g id="edge20" class="edge">
<title>view:login&#45;&gt;route:login</title>
<path fill="none" stroke="black" d="M572.79,-787.42C591.53,-794.22 617.44,-802.46 641.09,-806 656.91,-808.37 661.1,-806.56 677.09,-806 688.2,-805.61 700.25,-804.89 711.26,-804.12"/>
<polygon fill="black" stroke="black" points="711.48,-807.61 721.19,-803.38 710.96,-800.63 711.48,-807.61"/>
<text xml:space="preserve" text-anchor="middle" x="659.09" y="-809.14" font-family="Times,serif" font-size="9.00">references</text>
</g>
<!-- route:register -->
<g id="node16" class="node">
<title>route:register</title>
<g id="a_node16"><a xlink:href="src/Routes/Route.php" xlink:title="/register">
<ellipse fill="#aed6f1" stroke="black" cx="749.97" cy="-100" rx="33.07" ry="18"/>
<text xml:space="preserve" text-anchor="middle" x="749.97" y="-95.55" font-family="Helvetica,sans-Serif" font-size="11.00">/register</text>
</a>
</g>
</g>
<!-- controller:RegisterController -->
<g id="node17" class="node">
<title>controller:RegisterController</title>
<g id="a_node17"><a xlink:href="src/Controllers/RegisterController.php" xlink:title="RegisterController">
<polygon fill="#a9dfbf" stroke="black" points="1003.06,-197 899.31,-197 899.31,-161 1003.06,-161 1003.06,-197"/>
<text xml:space="preserve" text-anchor="middle" x="951.19" y="-174.55" font-family="Helvetica,sans-Serif" font-size="11.00">RegisterController</text>
</a>
</g>
</g>
<!-- route:register&#45;&gt;controller:RegisterController -->
<g id="edge5" class="edge">
<title>route:register&#45;&gt;controller:RegisterController</title>
<path fill="none" stroke="black" d="M777.42,-110.49C806.83,-122.15 855.21,-141.34 893.3,-156.44"/>
<polygon fill="black" stroke="black" points="891.75,-159.59 902.34,-160.03 894.33,-153.09 891.75,-159.59"/>
<text xml:space="preserve" text-anchor="middle" x="843.47" y="-146.18" font-family="Times,serif" font-size="9.00">handled_by</text>
</g>
<!-- controller:RegisterController&#45;&gt;model:User -->
<g id="edge8" class="edge">
<title>controller:RegisterController&#45;&gt;model:User</title>
<path fill="none" stroke="black" d="M1003.19,-179C1025.51,-179 1051.22,-179 1071.75,-179"/>
<polygon fill="black" stroke="black" points="1071.65,-182.5 1081.65,-179 1071.65,-175.5 1071.65,-182.5"/>
<text xml:space="preserve" text-anchor="middle" x="1051.78" y="-180.95" font-family="Times,serif" font-size="9.00">persists</text>
</g>
<!-- view:register -->
<g id="node18" class="node">
<title>view:register</title>
<g id="a_node18"><a xlink:href="templates/register.blade.php" xlink:title="register">
<polygon fill="#f9e79f" stroke="black" points="566.32,-311 518.32,-311 518.32,-275 572.32,-275 572.32,-305 566.32,-311"/>
<polyline fill="none" stroke="black" points="566.32,-311 566.32,-305"/>
<polyline fill="none" stroke="black" points="572.32,-305 566.32,-305"/>
<text xml:space="preserve" text-anchor="middle" x="545.32" y="-288.55" font-family="Helvetica,sans-Serif" font-size="11.00">register</text>
</a>
</g>
</g>
<!-- controller:RegisterController&#45;&gt;view:register -->
<g id="edge6" class="edge">
<title>controller:RegisterController&#45;&gt;view:register</title>
<path fill="none" stroke="black" d="M898.98,-181.46C823.47,-185.68 686.33,-195.75 641.09,-215 613.54,-226.72 587.69,-249.07 569.97,-266.85"/>
<polygon fill="black" stroke="black" points="567.92,-263.93 563.47,-273.55 572.95,-268.8 567.92,-263.93"/>
<text xml:space="preserve" text-anchor="middle" x="749.97" y="-202.81" font-family="Times,serif" font-size="9.00">renders</text>
</g>
<!-- view:register&#45;&gt;layout:base -->
<g id="edge22" class="edge">
<title>view:register&#45;&gt;layout:base</title>
<path fill="none" stroke="black" d="M572.65,-285.92C611.1,-276.22 684.98,-260 748.97,-260 748.97,-260 748.97,-260 1111.28,-260 1166.52,-260 1161.06,-311 1182.28,-362 1212.28,-434.09 1221.88,-526.73 1224.91,-573.37"/>
<polygon fill="black" stroke="black" points="1221.41,-573.43 1225.49,-583.21 1228.4,-573.02 1221.41,-573.43"/>
<text xml:space="preserve" text-anchor="middle" x="951.19" y="-261.95" font-family="Times,serif" font-size="9.00">extends</text>
</g>
<!-- view:register&#45;&gt;component:button -->
<g id="edge26" class="edge">
<title>view:register&#45;&gt;component:button</title>
<path fill="none" stroke="black" d="M559.8,-311.47C576.86,-333.95 608.04,-372.1 641.09,-398 662.53,-414.8 670.91,-414.45 695.09,-427 700.66,-429.89 706.58,-432.91 712.38,-435.84"/>
<polygon fill="black" stroke="black" points="710.72,-438.92 721.23,-440.29 713.87,-432.67 710.72,-438.92"/>
<text xml:space="preserve" text-anchor="middle" x="659.09" y="-420.33" font-family="Times,serif" font-size="9.00">uses</text>
</g>
<!-- view:register&#45;&gt;component:card -->
<g id="edge23" class="edge">
<title>view:register&#45;&gt;component:card</title>
<path fill="none" stroke="black" d="M572.68,-292.06C599.14,-291.41 641.03,-291.18 677.09,-294.5 688.32,-295.53 700.44,-297.36 711.46,-299.31"/>
<polygon fill="black" stroke="black" points="710.52,-302.69 720.99,-301.07 711.79,-295.81 710.52,-302.69"/>
<text xml:space="preserve" text-anchor="middle" x="659.09" y="-296.45" font-family="Times,serif" font-size="9.00">uses</text>
</g>
<!-- view:register&#45;&gt;component:form&#45;group -->
<g id="edge24" class="edge">
<title>view:register&#45;&gt;component:form&#45;group</title>
<path fill="none" stroke="black" d="M558.99,-311.25C575.84,-336.29 605.54,-383.2 623.09,-427 635.52,-458.02 620.42,-473.74 641.09,-500 645.64,-505.78 677.21,-521.86 705.03,-535.32"/>
<polygon fill="black" stroke="black" points="703.16,-538.31 713.69,-539.48 706.2,-532 703.16,-538.31"/>
<text xml:space="preserve" text-anchor="middle" x="659.09" y="-523.19" font-family="Times,serif" font-size="9.00">uses</text>
</g>
<!-- view:register&#45;&gt;component:input -->
<g id="edge25" class="edge">
<title>view:register&#45;&gt;component:input</title>
<path fill="none" stroke="black" d="M560.2,-311.34C578.12,-336.12 608.72,-382.34 623.09,-427 635.07,-464.21 619.11,-569.67 641.09,-602 643.38,-605.37 682.21,-625.08 712.64,-640.17"/>
<polygon fill="black" stroke="black" points="710.7,-643.11 721.21,-644.41 713.8,-636.84 710.7,-643.11"/>
<text xml:space="preserve" text-anchor="middle" x="659.09" y="-622.97" font-family="Times,serif" font-size="9.00">uses</text>
</g>
<!-- view:register&#45;&gt;route:login -->
<g id="edge28" class="edge">
<title>view:register&#45;&gt;route:login</title>
<path fill="none" stroke="black" d="M560.45,-311.26C578.65,-335.95 609.56,-382.07 623.09,-427 640.88,-486.06 608.92,-651.37 641.09,-704 650.81,-719.9 662.53,-713.87 677.09,-725.5 696.24,-740.8 715.24,-761.04 728.89,-776.71"/>
<polygon fill="black" stroke="black" points="726.13,-778.87 735.29,-784.19 731.45,-774.32 726.13,-778.87"/>
<text xml:space="preserve" text-anchor="middle" x="659.09" y="-727.45" font-family="Times,serif" font-size="9.00">references</text>
</g>
<!-- view:register&#45;&gt;route:register -->
<g id="edge27" class="edge">
<title>view:register&#45;&gt;route:register</title>
<path fill="none" stroke="black" d="M553.9,-274.94C567.36,-244.81 598.12,-183.99 641.09,-147.5 660.75,-130.8 687.19,-119.03 708.98,-111.39"/>
<polygon fill="black" stroke="black" points="710.07,-114.71 718.46,-108.24 707.86,-108.07 710.07,-114.71"/>
<text xml:space="preserve" text-anchor="middle" x="659.09" y="-149.45" font-family="Times,serif" font-size="9.00">references</text>
</g>
<!-- viewmodel:RegisterViewModel -->
<g id="node26" class="node">
<title>viewmodel:RegisterViewModel</title>
<g id="a_node26"><a xlink:href="src/ViewModels/RegisterViewModel.php" xlink:title="RegisterViewModel">
<path fill="#fadbd8" stroke="black" d="M804.84,-168.73C804.84,-170.53 780.24,-172 749.97,-172 719.69,-172 695.09,-170.53 695.09,-168.73 695.09,-168.73 695.09,-139.27 695.09,-139.27 695.09,-137.47 719.69,-136 749.97,-136 780.24,-136 804.84,-137.47 804.84,-139.27 804.84,-139.27 804.84,-168.73 804.84,-168.73"/>
<path fill="none" stroke="black" d="M804.84,-168.73C804.84,-166.92 780.24,-165.45 749.97,-165.45 719.69,-165.45 695.09,-166.92 695.09,-168.73"/>
<text xml:space="preserve" text-anchor="middle" x="749.97" y="-149.55" font-family="Helvetica,sans-Serif" font-size="11.00">RegisterViewModel</text>
</a>
</g>
</g>
<!-- view:register&#45;&gt;viewmodel:RegisterViewModel -->
<g id="edge29" class="edge">
<title>view:register&#45;&gt;viewmodel:RegisterViewModel</title>
<path fill="none" stroke="black" d="M555.82,-274.74C570.44,-248.58 601,-200.9 641.09,-176.5 653.85,-168.73 668.87,-163.61 683.57,-160.24"/>
<polygon fill="black" stroke="black" points="684.12,-163.7 693.23,-158.29 682.74,-156.84 684.12,-163.7"/>
<text xml:space="preserve" text-anchor="middle" x="659.09" y="-178.45" font-family="Times,serif" font-size="9.00">receives</text>
</g>
<!-- route:opcache_status -->
<g id="node19" class="node">
<title>route:opcache_status</title>
<g id="a_node19"><a xlink:href="src/Routes/Route.php" xlink:title="/_opcache/status [dev]">
<ellipse fill="#aed6f1" stroke="black" cx="329.83" cy="-1319" rx="74.11" ry="18"/>
<text xml:space="preserve" text-anchor="middle" x="329.83" y="-1314.55" font-family="Helvetica,sans-Serif" font-size="11.00">/_opcache/status [dev]</text>
</a>
</g>
</g>
<!-- route:opcache_scripts -->
<g id="node20" class="node">
<title>route:opcache_scripts</title>
<g id="a_node20"><a xlink:href="src/Routes/Route.php" xlink:title="/_opcache/scripts [dev]">
<ellipse fill="#aed6f1" stroke="black" cx="329.83" cy="-1373" rx="75.47" ry="18"/>
<text xml:space="preserve" text-anchor="middle" x="329.83" y="-1368.55" font-family="Helvetica,sans-Serif" font-size="11.00">/_opcache/scripts [dev]</text>
</a>
</g>
</g>
<!-- route:styleguide -->
<g id="node21" class="node">
<title>route:styleguide</title>
<g id="a_node21"><a xlink:href="src/Routes/Route.php" xlink:title="/_styleguide [dev]">
<ellipse fill="#aed6f1" stroke="black" cx="329.83" cy="-454" rx="59.68" ry="18"/>
<text xml:space="preserve" text-anchor="middle" x="329.83" y="-449.55" font-family="Helvetica,sans-Serif" font-size="11.00">/_styleguide [dev]</text>
</a>
</g>
</g>
<!-- view:styleguide -->
<g id="node22" class="node">
<title>view:styleguide</title>
<g id="a_node22"><a xlink:href="templates/styleguide.blade.php" xlink:title="styleguide">
<polygon fill="#f9e79f" stroke="black" points="571.32,-472 513.32,-472 513.32,-436 577.32,-436 577.32,-466 571.32,-472"/>
<polyline fill="none" stroke="black" points="571.32,-472 571.32,-466"/>
<polyline fill="none" stroke="black" points="577.32,-466 571.32,-466"/>
<text xml:space="preserve" text-anchor="middle" x="545.32" y="-449.55" font-family="Helvetica,sans-Serif" font-size="11.00">styleguide</text>
</a>
</g>
</g>
<!-- route:styleguide&#45;&gt;view:styleguide -->
<g id="edge7" class="edge">
<title>route:styleguide&#45;&gt;view:styleguide</title>
<path fill="none" stroke="black" d="M389.74,-454C425.24,-454 469.65,-454 501.75,-454"/>
<polygon fill="black" stroke="black" points="501.46,-457.5 511.46,-454 501.46,-450.5 501.46,-457.5"/>
<text xml:space="preserve" text-anchor="middle" x="436.43" y="-455.95" font-family="Times,serif" font-size="9.00">renders</text>
</g>
<!-- view:styleguide&#45;&gt;layout:base -->
<g id="edge30" class="edge">
<title>view:styleguide&#45;&gt;layout:base</title>
<path fill="none" stroke="black" d="M564.25,-435.82C582.17,-418.68 611.28,-393.51 641.09,-379 685.43,-357.42 699.65,-353 748.97,-353 748.97,-353 748.97,-353 1111.28,-353 1207.31,-353 1223.44,-507.1 1225.94,-573.33"/>
<polygon fill="black" stroke="black" points="1222.43,-573.21 1226.22,-583.1 1229.43,-573.01 1222.43,-573.21"/>
<text xml:space="preserve" text-anchor="middle" x="951.19" y="-354.95" font-family="Times,serif" font-size="9.00">extends</text>
</g>
<!-- view:styleguide&#45;&gt;component:alert -->
<g id="edge35" class="edge">
<title>view:styleguide&#45;&gt;component:alert</title>
<path fill="none" stroke="black" d="M564.72,-435.81C582.54,-419.57 611.19,-396.94 641.09,-387.5 663.84,-380.31 690.47,-383.29 711.57,-388.13"/>
<polygon fill="black" stroke="black" points="710.65,-391.51 721.2,-390.59 712.38,-384.73 710.65,-391.51"/>
<text xml:space="preserve" text-anchor="middle" x="659.09" y="-389.45" font-family="Times,serif" font-size="9.00">uses</text>
</g>
<!-- view:styleguide&#45;&gt;component:button -->
<g id="edge31" class="edge">
<title>view:styleguide&#45;&gt;component:button</title>
<path fill="none" stroke="black" d="M577.54,-454C613.48,-454 672.51,-454 711.06,-454"/>
<polygon fill="black" stroke="black" points="711.04,-457.5 721.04,-454 711.04,-450.5 711.04,-457.5"/>
<text xml:space="preserve" text-anchor="middle" x="659.09" y="-455.95" font-family="Times,serif" font-size="9.00">uses</text>
</g>
<!-- view:styleguide&#45;&gt;component:card -->
<g id="edge34" class="edge">
<title>view:styleguide&#45;&gt;component:card</title>
<path fill="none" stroke="black" d="M554.72,-435.68C568.53,-407.78 598.77,-355.06 641.09,-328.5 662.07,-315.34 689.48,-309.99 711.42,-307.92"/>
<polygon fill="black" stroke="black" points="711.42,-311.43 721.14,-307.21 710.91,-304.45 711.42,-311.43"/>
<text xml:space="preserve" text-anchor="middle" x="659.09" y="-330.45" font-family="Times,serif" font-size="9.00">uses</text>
</g>
<!-- view:styleguide&#45;&gt;component:form&#45;group -->
<g id="edge33" class="edge">
<title>view:styleguide&#45;&gt;component:form&#45;group</title>
<path fill="none" stroke="black" d="M562.57,-472.29C580.09,-490.8 609.7,-518.79 641.09,-534 660.5,-543.4 683.76,-548.79 703.71,-551.88"/>
<polygon fill="black" stroke="black" points="703.13,-555.33 713.51,-553.23 704.09,-548.4 703.13,-555.33"/>
<text xml:space="preserve" text-anchor="middle" x="659.09" y="-548.02" font-family="Times,serif" font-size="9.00">uses</text>
</g>
<!-- view:styleguide&#45;&gt;component:input -->
<g id="edge32" class="edge">
<title>view:styleguide&#45;&gt;component:input</title>
<path fill="none" stroke="black" d="M550.31,-472.38C559.4,-509.61 585.33,-593.97 641.09,-636 661.14,-651.12 689.03,-656.51 711.42,-658.18"/>
<polygon fill="black" stroke="black" points="711.21,-661.68 721.38,-658.68 711.56,-654.68 711.21,-661.68"/>
<text xml:space="preserve" text-anchor="middle" x="659.09" y="-654.22" font-family="Times,serif" font-size="9.00">uses</text>
</g>
<!-- view:styleguide&#45;&gt;route:home -->
<g id="edge36" class="edge">
<title>view:styleguide&#45;&gt;route:home</title>
<path fill="none" stroke="black" d="M552.19,-472.48C566.64,-518.72 604.14,-643.37 623.09,-750 630.24,-790.23 619.2,-898.49 641.09,-933 651.07,-948.74 666.59,-939.1 677.09,-954.5 704.63,-994.89 667.78,-1022.46 695.09,-1063 700.3,-1070.74 708,-1076.98 715.96,-1081.86"/>
<polygon fill="black" stroke="black" points="714.22,-1084.9 724.68,-1086.61 717.57,-1078.75 714.22,-1084.9"/>
<text xml:space="preserve" text-anchor="middle" x="659.09" y="-956.45" font-family="Times,serif" font-size="9.00">references</text>
</g>
<!-- route:routes -->
<g id="node23" class="node">
<title>route:routes</title>
<g id="a_node23"><a xlink:href="src/Routes/Route.php" xlink:title="/_routes [dev]">
<ellipse fill="#aed6f1" stroke="black" cx="749.97" cy="-921" rx="48.86" ry="18"/>
<text xml:space="preserve" text-anchor="middle" x="749.97" y="-916.55" font-family="Helvetica,sans-Serif" font-size="11.00">/_routes [dev]</text>
</a>
</g>
</g>
<!-- view:error -->
<g id="node24" class="node">
<title>view:error</title>
<g id="a_node24"><a xlink:href="templates/error.blade.php" xlink:title="error">
<polygon fill="#f9e79f" stroke="black" points="566.32,-64 518.32,-64 518.32,-28 572.32,-28 572.32,-58 566.32,-64"/>
<polyline fill="none" stroke="black" points="566.32,-64 566.32,-58"/>
<polyline fill="none" stroke="black" points="572.32,-58 566.32,-58"/>
<text xml:space="preserve" text-anchor="middle" x="545.32" y="-41.55" font-family="Helvetica,sans-Serif" font-size="11.00">error</text>
</a>
</g>
</g>
<!-- view:error&#45;&gt;layout:base -->
<g id="edge11" class="edge">
<title>view:error&#45;&gt;layout:base</title>
<path fill="none" stroke="black" d="M572.77,-36.02C611.04,-22.49 684.39,0 748.97,0 748.97,0 748.97,0 1111.28,0 1170.34,0 1213.34,-451.99 1223.82,-573.32"/>
<polygon fill="black" stroke="black" points="1220.31,-573.45 1224.65,-583.12 1227.29,-572.85 1220.31,-573.45"/>
<text xml:space="preserve" text-anchor="middle" x="951.19" y="-1.95" font-family="Times,serif" font-size="9.00">extends</text>
</g>
<!-- view:error&#45;&gt;component:card -->
<g id="edge12" class="edge">
<title>view:error&#45;&gt;component:card</title>
<path fill="none" stroke="black" d="M572.66,-48.42C589.62,-51.41 610.74,-58.1 623.09,-73 656.94,-113.85 618,-143.24 641.09,-191 658.57,-227.17 691.22,-259.82 716.04,-281.2"/>
<polygon fill="black" stroke="black" points="713.72,-283.83 723.63,-287.58 718.23,-278.47 713.72,-283.83"/>
<text xml:space="preserve" text-anchor="middle" x="659.09" y="-242.74" font-family="Times,serif" font-size="9.00">uses</text>
</g>
<!-- viewmodel:ErrorViewModel -->
<g id="node25" class="node">
<title>viewmodel:ErrorViewModel</title>
<g id="a_node25"><a xlink:href="src/ViewModels/ErrorViewModel.php" xlink:title="ErrorViewModel">
<path fill="#fadbd8" stroke="black" d="M796.97,-60.73C796.97,-62.53 775.9,-64 749.97,-64 724.03,-64 702.97,-62.53 702.97,-60.73 702.97,-60.73 702.97,-31.27 702.97,-31.27 702.97,-29.47 724.03,-28 749.97,-28 775.9,-28 796.97,-29.47 796.97,-31.27 796.97,-31.27 796.97,-60.73 796.97,-60.73"/>
<path fill="none" stroke="black" d="M796.97,-60.73C796.97,-58.92 775.9,-57.45 749.97,-57.45 724.03,-57.45 702.97,-58.92 702.97,-60.73"/>
<text xml:space="preserve" text-anchor="middle" x="749.97" y="-41.55" font-family="Helvetica,sans-Serif" font-size="11.00">ErrorViewModel</text>
</a>
</g>
</g>
<!-- view:error&#45;&gt;viewmodel:ErrorViewModel -->
<g id="edge13" class="edge">
<title>view:error&#45;&gt;viewmodel:ErrorViewModel</title>
<path fill="none" stroke="black" d="M572.81,-46C602.73,-46 652.3,-46 691.25,-46"/>
<polygon fill="black" stroke="black" points="691.19,-49.5 701.19,-46 691.19,-42.5 691.19,-49.5"/>
<text xml:space="preserve" text-anchor="middle" x="659.09" y="-47.95" font-family="Times,serif" font-size="9.00">receives</text>
</g>
<!-- test:AboutRouteTest -->
<g id="node31" class="node">
<title>test:AboutRouteTest</title>
<g id="a_node31"><a xlink:href="tests/Integration/AboutRouteTest.php" xlink:title="AboutRouteTest">
<polygon fill="#d6eaf8" stroke="black" points="162.31,-1211 129.93,-1229 65.18,-1229 32.81,-1211 65.18,-1193 129.93,-1193 162.31,-1211"/>
<text xml:space="preserve" text-anchor="middle" x="97.56" y="-1206.55" font-family="Helvetica,sans-Serif" font-size="11.00">AboutRouteTest</text>
</a>
</g>
</g>
<!-- test:AboutRouteTest&#45;&gt;route:about -->
<g id="edge41" class="edge">
<title>test:AboutRouteTest&#45;&gt;route:about</title>
<path fill="none" stroke="black" d="M163.32,-1211C204.25,-1211 255.77,-1211 290.36,-1211"/>
<polygon fill="black" stroke="black" points="290.33,-1214.5 300.33,-1211 290.33,-1207.5 290.33,-1214.5"/>
<text xml:space="preserve" text-anchor="middle" x="224.74" y="-1212.95" font-family="Times,serif" font-size="9.00">covers</text>
</g>
<!-- test:BladeCacheTest -->
<g id="node32" class="node">
<title>test:BladeCacheTest</title>
<g id="a_node32"><a xlink:href="tests/Integration/BladeCacheTest.php" xlink:title="BladeCacheTest">
<polygon fill="#d6eaf8" stroke="black" points="163.35,-1427 130.45,-1445 64.66,-1445 31.77,-1427 64.66,-1409 130.45,-1409 163.35,-1427"/>
<text xml:space="preserve" text-anchor="middle" x="97.56" y="-1422.55" font-family="Helvetica,sans-Serif" font-size="11.00">BladeCacheTest</text>
</a>
</g>
</g>
<!-- test:HOT004Test -->
<g id="node33" class="node">
<title>test:HOT004Test</title>
<g id="a_node33"><a xlink:href="tests/Integration/HOT004Test.php" xlink:title="HOT004Test">
<polygon fill="#d6eaf8" stroke="black" points="598.61,-1103 571.97,-1121 518.68,-1121 492.03,-1103 518.68,-1085 571.97,-1085 598.61,-1103"/>
<text xml:space="preserve" text-anchor="middle" x="545.32" y="-1098.55" font-family="Helvetica,sans-Serif" font-size="11.00">HOT004Test</text>
</a>
</g>
</g>
<!-- test:HOT004Test&#45;&gt;route:home -->
<g id="edge42" class="edge">
<title>test:HOT004Test&#45;&gt;route:home</title>
<path fill="none" stroke="black" d="M596.67,-1101.26C632.27,-1100.03 679.22,-1098.41 711.53,-1097.29"/>
<polygon fill="black" stroke="black" points="711.34,-1100.8 721.21,-1096.96 711.1,-1093.81 711.34,-1100.8"/>
<text xml:space="preserve" text-anchor="middle" x="659.09" y="-1101.66" font-family="Times,serif" font-size="9.00">covers</text>
</g>
<!-- test:HomeControllerTest -->
<g id="node34" class="node">
<title>test:HomeControllerTest</title>
<g id="a_node34"><a xlink:href="tests/Integration/HomeControllerTest.php" xlink:title="HomeControllerTest">
<polygon fill="#d6eaf8" stroke="black" points="623.09,-1049 584.21,-1067 506.44,-1067 467.55,-1049 506.44,-1031 584.21,-1031 623.09,-1049"/>
<text xml:space="preserve" text-anchor="middle" x="545.32" y="-1044.55" font-family="Helvetica,sans-Serif" font-size="11.00">HomeControllerTest</text>
</a>
</g>
</g>
<!-- test:HomeControllerTest&#45;&gt;route:home -->
<g id="edge44" class="edge">
<title>test:HomeControllerTest&#45;&gt;route:home</title>
<path fill="none" stroke="black" d="M598.24,-1061.04C634.17,-1069.38 681.07,-1080.25 712.95,-1087.65"/>
<polygon fill="black" stroke="black" points="711.95,-1091.01 722.49,-1089.86 713.54,-1084.19 711.95,-1091.01"/>
<text xml:space="preserve" text-anchor="middle" x="659.09" y="-1080.04" font-family="Times,serif" font-size="9.00">covers</text>
</g>
<!-- test:HomeControllerTest&#45;&gt;controller:HomeController -->
<g id="edge43" class="edge">
<title>test:HomeControllerTest&#45;&gt;controller:HomeController</title>
<path fill="none" stroke="black" d="M624.19,-1049C703.01,-1049 823,-1049 893.31,-1049"/>
<polygon fill="black" stroke="black" points="893.06,-1052.5 903.06,-1049 893.06,-1045.5 893.06,-1052.5"/>
<text xml:space="preserve" text-anchor="middle" x="749.97" y="-1050.95" font-family="Times,serif" font-size="9.00">covers</text>
</g>
<!-- test:LoginRouteTest -->
<g id="node35" class="node">
<title>test:LoginRouteTest</title>
<g id="a_node35"><a xlink:href="tests/Integration/LoginRouteTest.php" xlink:title="LoginRouteTest">
<polygon fill="#d6eaf8" stroke="black" points="608.51,-887 576.91,-905 513.73,-905 482.13,-887 513.73,-869 576.91,-869 608.51,-887"/>
<text xml:space="preserve" text-anchor="middle" x="545.32" y="-882.55" font-family="Helvetica,sans-Serif" font-size="11.00">LoginRouteTest</text>
</a>
</g>
</g>
<!-- test:LoginRouteTest&#45;&gt;route:login -->
<g id="edge45" class="edge">
<title>test:LoginRouteTest&#45;&gt;route:login</title>
<path fill="none" stroke="black" d="M582.08,-871.82C620.14,-855.67 679.82,-830.34 716.55,-814.76"/>
<polygon fill="black" stroke="black" points="717.48,-818.16 725.32,-811.04 714.75,-811.72 717.48,-818.16"/>
<text xml:space="preserve" text-anchor="middle" x="659.09" y="-848.53" font-family="Times,serif" font-size="9.00">covers</text>
</g>
<!-- test:OpcacheScriptsRouteTest -->
<g id="node36" class="node">
<title>test:OpcacheScriptsRouteTest</title>
<g id="a_node36"><a xlink:href="tests/Integration/OpcacheScriptsRouteTest.php" xlink:title="OpcacheScriptsRouteTest">
<polygon fill="#d6eaf8" stroke="black" points="195.12,-1373 146.34,-1391 48.78,-1391 0,-1373 48.78,-1355 146.34,-1355 195.12,-1373"/>
<text xml:space="preserve" text-anchor="middle" x="97.56" y="-1368.55" font-family="Helvetica,sans-Serif" font-size="11.00">OpcacheScriptsRouteTest</text>
</a>
</g>
</g>
<!-- test:OpcacheScriptsRouteTest&#45;&gt;route:opcache_scripts -->
<g id="edge46" class="edge">
<title>test:OpcacheScriptsRouteTest&#45;&gt;route:opcache_scripts</title>
<path fill="none" stroke="black" d="M196.55,-1373C211.87,-1373 227.59,-1373 242.62,-1373"/>
<polygon fill="black" stroke="black" points="242.44,-1376.5 252.44,-1373 242.44,-1369.5 242.44,-1376.5"/>
<text xml:space="preserve" text-anchor="middle" x="224.74" y="-1374.95" font-family="Times,serif" font-size="9.00">covers</text>
</g>
<!-- test:OpcacheStatusRouteTest -->
<g id="node37" class="node">
<title>test:OpcacheStatusRouteTest</title>
<g id="a_node37"><a xlink:href="tests/Integration/OpcacheStatusRouteTest.php" xlink:title="OpcacheStatusRouteTest">
<polygon fill="#d6eaf8" stroke="black" points="193.55,-1319 145.56,-1337 49.56,-1337 1.56,-1319 49.56,-1301 145.56,-1301 193.55,-1319"/>
<text xml:space="preserve" text-anchor="middle" x="97.56" y="-1314.55" font-family="Helvetica,sans-Serif" font-size="11.00">OpcacheStatusRouteTest</text>
</a>
</g>
</g>
<!-- test:OpcacheStatusRouteTest&#45;&gt;route:opcache_status -->
<g id="edge47" class="edge">
<title>test:OpcacheStatusRouteTest&#45;&gt;route:opcache_status</title>
<path fill="none" stroke="black" d="M194.88,-1319C211.15,-1319 227.93,-1319 243.87,-1319"/>
<polygon fill="black" stroke="black" points="243.81,-1322.5 253.81,-1319 243.81,-1315.5 243.81,-1322.5"/>
<text xml:space="preserve" text-anchor="middle" x="224.74" y="-1320.95" font-family="Times,serif" font-size="9.00">covers</text>
</g>
<!-- test:RegisterRouteTest -->
<g id="node38" class="node">
<title>test:RegisterRouteTest</title>
<g id="a_node38"><a xlink:href="tests/Integration/RegisterRouteTest.php" xlink:title="RegisterRouteTest">
<polygon fill="#d6eaf8" stroke="black" points="618.4,-100 581.86,-118 508.78,-118 472.24,-100 508.78,-82 581.86,-82 618.4,-100"/>
<text xml:space="preserve" text-anchor="middle" x="545.32" y="-95.55" font-family="Helvetica,sans-Serif" font-size="11.00">RegisterRouteTest</text>
</a>
</g>
</g>
<!-- test:RegisterRouteTest&#45;&gt;route:register -->
<g id="edge48" class="edge">
<title>test:RegisterRouteTest&#45;&gt;route:register</title>
<path fill="none" stroke="black" d="M619.48,-100C648.16,-100 680.1,-100 705.09,-100"/>
<polygon fill="black" stroke="black" points="704.88,-103.5 714.88,-100 704.88,-96.5 704.88,-103.5"/>
<text xml:space="preserve" text-anchor="middle" x="659.09" y="-101.95" font-family="Times,serif" font-size="9.00">covers</text>
</g>
<!-- test:RoutesRouteTest -->
<g id="node39" class="node">
<title>test:RoutesRouteTest</title>
<g id="a_node39"><a xlink:href="tests/Integration/RoutesRouteTest.php" xlink:title="RoutesRouteTest">
<polygon fill="#d6eaf8" stroke="black" points="614.24,-968 579.78,-986 510.86,-986 476.41,-968 510.86,-950 579.78,-950 614.24,-968"/>
<text xml:space="preserve" text-anchor="middle" x="545.32" y="-963.55" font-family="Helvetica,sans-Serif" font-size="11.00">RoutesRouteTest</text>
</a>
</g>
</g>
<!-- test:RoutesRouteTest&#45;&gt;route:home -->
<g id="edge50" class="edge">
<title>test:RoutesRouteTest&#45;&gt;route:home</title>
<path fill="none" stroke="black" d="M574.74,-986.37C604.61,-1005.62 653,-1036.67 695.09,-1063 703,-1067.95 711.61,-1073.25 719.57,-1078.13"/>
<polygon fill="black" stroke="black" points="717.56,-1081 727.92,-1083.23 721.21,-1075.03 717.56,-1081"/>
<text xml:space="preserve" text-anchor="middle" x="659.09" y="-1052.18" font-family="Times,serif" font-size="9.00">covers</text>
</g>
<!-- test:RoutesRouteTest&#45;&gt;route:routes -->
<g id="edge49" class="edge">
<title>test:RoutesRouteTest&#45;&gt;route:routes</title>
<path fill="none" stroke="black" d="M575.81,-949.73C593.92,-939.58 617.99,-927.93 641.09,-922.5 656.79,-918.81 674.13,-917.43 690.23,-917.23"/>
<polygon fill="black" stroke="black" points="690.17,-920.73 700.19,-917.27 690.2,-913.73 690.17,-920.73"/>
<text xml:space="preserve" text-anchor="middle" x="659.09" y="-924.45" font-family="Times,serif" font-size="9.00">covers</text>
</g>
<!-- test:StyleguideRouteTest -->
<g id="node40" class="node">
<title>test:StyleguideRouteTest</title>
<g id="a_node40"><a xlink:href="tests/Integration/StyleguideRouteTest.php" xlink:title="StyleguideRouteTest">
<polygon fill="#d6eaf8" stroke="black" points="177.41,-454 137.48,-472 57.63,-472 17.71,-454 57.63,-436 137.48,-436 177.41,-454"/>
<text xml:space="preserve" text-anchor="middle" x="97.56" y="-449.55" font-family="Helvetica,sans-Serif" font-size="11.00">StyleguideRouteTest</text>
</a>
</g>
</g>
<!-- test:StyleguideRouteTest&#45;&gt;route:styleguide -->
<g id="edge51" class="edge">
<title>test:StyleguideRouteTest&#45;&gt;route:styleguide</title>
<path fill="none" stroke="black" d="M178.45,-454C204.47,-454 233.15,-454 258.43,-454"/>
<polygon fill="black" stroke="black" points="258.27,-457.5 268.27,-454 258.27,-450.5 258.27,-457.5"/>
<text xml:space="preserve" text-anchor="middle" x="224.74" y="-455.95" font-family="Times,serif" font-size="9.00">covers</text>
</g>
<!-- test:TRACE001Test -->
<g id="node41" class="node">
<title>test:TRACE001Test</title>
<g id="a_node41"><a xlink:href="tests/Integration/TRACE001Test.php" xlink:title="TRACE001Test">
<polygon fill="#d6eaf8" stroke="black" points="609.03,-1157 577.18,-1175 513.47,-1175 481.61,-1157 513.47,-1139 577.18,-1139 609.03,-1157"/>
<text xml:space="preserve" text-anchor="middle" x="545.32" y="-1152.55" font-family="Helvetica,sans-Serif" font-size="11.00">TRACE001Test</text>
</a>
</g>
</g>
<!-- test:TRACE001Test&#45;&gt;route:home -->
<g id="edge52" class="edge">
<title>test:TRACE001Test&#45;&gt;route:home</title>
<path fill="none" stroke="black" d="M587.82,-1144.51C625.12,-1133.28 679.27,-1116.98 714.31,-1106.43"/>
<polygon fill="black" stroke="black" points="714.95,-1109.89 723.52,-1103.66 712.93,-1103.19 714.95,-1109.89"/>
<text xml:space="preserve" text-anchor="middle" x="659.09" y="-1130.28" font-family="Times,serif" font-size="9.00">covers</text>
</g>
</g>
</svg>
