<?xml version="1.0" encoding="UTF-8" standalone="no"?>
<!DOCTYPE svg PUBLIC "-//W3C//DTD SVG 1.1//EN"
 "http://www.w3.org/Graphics/SVG/1.1/DTD/svg11.dtd">
<!-- Generated by graphviz version 13.0.1 (20250615.1724)
 -->
<!-- Title: inventory Pages: 1 -->
<svg width="1262pt" height="1504pt"
 viewBox="0.00 0.00 1262.00 1504.00" xmlns="http://www.w3.org/2000/svg" xmlns:xlink="http://www.w3.org/1999/xlink">
<g id="graph0" class="graph" transform="scale(1 1) rotate(0) translate(4 1500)">
<title>inventory</title>
<polygon fill="white" stroke="none" points="-4,4 -4,-1500 1257.53,-1500 1257.53,4 -4,4"/>
<!-- layout:base -->
<g id="node1" class="node">
<title>layout:base</title>
<g id="a_node1"><a xlink:href="templates/base.blade.php" xlink:title="base">
<polygon fill="#d7bde2" stroke="black" points="1253.53,-618 1211.53,-618 1211.53,-622 1199.53,-622 1199.53,-582 1253.53,-582 1253.53,-618"/>
<polyline fill="none" stroke="black" points="1199.53,-618 1211.53,-618"/>
<text xml:space="preserve" text-anchor="middle" x="1226.53" y="-595.55" font-family="Helvetica,sans-Serif" font-size="11.00">base</text>
</a>
</g>
</g>
<!-- component:alert -->
<g id="node2" class="node">
<title>component:alert</title>
<g id="a_node2"><a xlink:href="templates/components/alert.blade.php" xlink:title="alert">
<polygon fill="#f5cba7" stroke="black" points="776.97,-415 722.97,-415 722.97,-411 718.97,-411 718.97,-407 722.97,-407 722.97,-387 718.97,-387 718.97,-383 722.97,-383 722.97,-379 776.97,-379 776.97,-415"/>
<polyline fill="none" stroke="black" points="722.97,-411 726.97,-411 726.97,-407 722.97,-407"/>
<polyline fill="none" stroke="black" points="722.97,-387 726.97,-387 726.97,-383 722.97,-383"/>
<text xml:space="preserve" text-anchor="middle" x="749.97" y="-392.55" font-family="Helvetica,sans-Serif" font-size="11.00">alert</text>
</a>
</g>
</g>
<!-- ui_enum:AlertVariant -->
<g id="node27" class="node">
<title>ui_enum:AlertVariant</title>
<g id="a_node27"><a xlink:href="src/UI/AlertVariant.php" xlink:title="AlertVariant">
<polygon fill="#d5f5e3" stroke="black" points="951.19,-415 889.74,-397 951.19,-379 1012.63,-397 951.19,-415"/>
<text xml:space="preserve" text-anchor="middle" x="951.19" y="-392.55" font-family="Helvetica,sans-Serif" font-size="11.00">AlertVariant</text>
</a>
</g>
</g>
<!-- component:alert&#45;&gt;ui_enum:AlertVariant -->
<g id="edge36" class="edge">
<title>component:alert&#45;&gt;ui_enum:AlertVariant</title>
<path fill="none" stroke="black" d="M777.42,-397C802.83,-397 842.38,-397 877.23,-397"/>
<polygon fill="black" stroke="black" points="876.85,-400.5 886.85,-397 876.85,-393.5 876.85,-400.5"/>
<text xml:space="preserve" text-anchor="middle" x="843.47" y="-398.95" font-family="Times,serif" font-size="9.00">uses_enum</text>
</g>
<!-- component:button -->
<g id="node3" class="node">
<title>component:button</title>
<g id="a_node3"><a xlink:href="templates/components/button.blade.php" xlink:title="button">
<polygon fill="#f5cba7" stroke="black" points="776.97,-469 722.97,-469 722.97,-465 718.97,-465 718.97,-461 722.97,-461 722.97,-441 718.97,-441 718.97,-437 722.97,-437 722.97,-433 776.97,-433 776.97,-469"/>
<polyline fill="none" stroke="black" points="722.97,-465 726.97,-465 726.97,-461 722.97,-461"/>
<polyline fill="none" stroke="black" points="722.97,-441 726.97,-441 726.97,-437 722.97,-437"/>
<text xml:space="preserve" text-anchor="middle" x="749.97" y="-446.55" font-family="Helvetica,sans-Serif" font-size="11.00">button</text>
</a>
</g>
</g>
<!-- ui_enum:ButtonVariant -->
<g id="node28" class="node">
<title>ui_enum:ButtonVariant</title>
<g id="a_node28"><a xlink:href="src/UI/ButtonVariant.php" xlink:title="ButtonVariant">
<polygon fill="#d5f5e3" stroke="black" points="951.19,-469 882.09,-451 951.19,-433 1020.28,-451 951.19,-469"/>
<text xml:space="preserve" text-anchor="middle" x="951.19" y="-446.55" font-family="Helvetica,sans-Serif" font-size="11.00">ButtonVariant</text>
</a>
</g>
</g>
<!-- component:button&#45;&gt;ui_enum:ButtonVariant -->
<g id="edge37" class="edge">
<title>component:button&#45;&gt;ui_enum:ButtonVariant</title>
<path fill="none" stroke="black" d="M777.42,-451C800.81,-451 836.18,-451 868.84,-451"/>
<polygon fill="black" stroke="black" points="868.75,-454.5 878.75,-451 868.75,-447.5 868.75,-454.5"/>
<text xml:space="preserve" text-anchor="middle" x="843.47" y="-452.95" font-family="Times,serif" font-size="9.00">uses_enum</text>
</g>
<!-- ui_enum:ButtonSize -->
<g id="node29" class="node">
<title>ui_enum:ButtonSize</title>
<g id="a_node29"><a xlink:href="src/UI/ButtonSize.php" xlink:title="ButtonSize">
<polygon fill="#d5f5e3" stroke="black" points="951.19,-523 892.93,-505 951.19,-487 1009.44,-505 951.19,-523"/>
<text xml:space="preserve" text-anchor="middle" x="951.19" y="-500.55" font-family="Helvetica,sans-Serif" font-size="11.00">ButtonSize</text>
</a>
</g>
</g>
<!-- component:button&#45;&gt;ui_enum:ButtonSize -->
<g id="edge38" class="edge">
<title>component:button&#45;&gt;ui_enum:ButtonSize</title>
<path fill="none" stroke="black" d="M777.42,-458.17C810.82,-467.22 868.69,-482.91 908.17,-493.61"/>
<polygon fill="black" stroke="black" points="907,-496.92 917.57,-496.16 908.83,-490.16 907,-496.92"/>
<text xml:space="preserve" text-anchor="middle" x="843.47" y="-483.18" font-family="Times,serif" font-size="9.00">uses_enum</text>
</g>
<!-- component:card -->
<g id="node4" class="node">
<title>component:card</title>
<g id="a_node4"><a xlink:href="templates/components/card.blade.php" xlink:title="card">
<polygon fill="#f5cba7" stroke="black" points="776.97,-322 722.97,-322 722.97,-318 718.97,-318 718.97,-314 722.97,-314 722.97,-294 718.97,-294 718.97,-290 722.97,-290 722.97,-286 776.97,-286 776.97,-322"/>
<polyline fill="none" stroke="black" points="722.97,-318 726.97,-318 726.97,-314 722.97,-314"/>
<polyline fill="none" stroke="black" points="722.97,-294 726.97,-294 726.97,-290 722.97,-290"/>
<text xml:space="preserve" text-anchor="middle" x="749.97" y="-299.55" font-family="Helvetica,sans-Serif" font-size="11.00">card</text>
</a>
</g>
</g>
<!-- component:form&#45;group -->
<g id="node5" class="node">
<title>component:form&#45;group</title>
<g id="a_node5"><a xlink:href="templates/components/form-group.blade.php" xlink:title="form&#45;group">
<polygon fill="#f5cba7" stroke="black" points="784.59,-571 715.34,-571 715.34,-567 711.34,-567 711.34,-563 715.34,-563 715.34,-543 711.34,-543 711.34,-539 715.34,-539 715.34,-535 784.59,-535 784.59,-571"/>
<polyline fill="none" stroke="black" points="715.34,-567 719.34,-567 719.34,-563 715.34,-563"/>
<polyline fill="none" stroke="black" points="715.34,-543 719.34,-543 719.34,-539 715.34,-539"/>
<text xml:space="preserve" text-anchor="middle" x="749.97" y="-548.55" font-family="Helvetica,sans-Serif" font-size="11.00">form&#45;group</text>
</a>
</g>
</g>
<!-- component:input -->
<g id="node6" class="node">
<title>component:input</title>
<g id="a_node6"><a xlink:href="templates/components/input.blade.php" xlink:title="input">
<polygon fill="#f5cba7" stroke="black" points="776.97,-673 722.97,-673 722.97,-669 718.97,-669 718.97,-665 722.97,-665 722.97,-645 718.97,-645 718.97,-641 722.97,-641 722.97,-637 776.97,-637 776.97,-673"/>
<polyline fill="none" stroke="black" points="722.97,-669 726.97,-669 726.97,-665 722.97,-665"/>
<polyline fill="none" stroke="black" points="722.97,-645 726.97,-645 726.97,-641 722.97,-641"/>
<text xml:space="preserve" text-anchor="middle" x="749.97" y="-650.55" font-family="Helvetica,sans-Serif" font-size="11.00">input</text>
</a>
</g>
</g>
<!-- ui_enum:InputType -->
<g id="node30" class="node">
<title>ui_enum:InputType</title>
<g id="a_node30"><a xlink:href="src/UI/InputType.php" xlink:title="InputType">
<polygon fill="#d5f5e3" stroke="black" points="951.19,-673 896.76,-655 951.19,-637 1005.61,-655 951.19,-673"/>
<text xml:space="preserve" text-anchor="middle" x="951.19" y="-650.55" font-family="Helvetica,sans-Serif" font-size="11.00">InputType</text>
</a>
</g>
</g>
<!-- component:input&#45;&gt;ui_enum:InputType -->
<g id="edge39" class="edge">
<title>component:input&#45;&gt;ui_enum:InputType</title>
<path fill="none" stroke="black" d="M777.42,-655C804.57,-655 847.87,-655 884.33,-655"/>
<polygon fill="black" stroke="black" points="883.88,-658.5 893.88,-655 883.88,-651.5 883.88,-658.5"/>
<text xml:space="preserve" text-anchor="middle" x="843.47" y="-656.95" font-family="Times,serif" font-size="9.00">uses_enum</text>
</g>
<!-- model:Migration -->
<g id="node7" class="node">
<title>model:Migration</title>
<g id="a_node7"><a xlink:href="src/Tables/Migration.php" xlink:title="Migration">
<path fill="#d5dbdb" stroke="black" d="M127.68,-1276.73C127.68,-1278.53 114.18,-1280 97.56,-1280 80.94,-1280 67.43,-1278.53 67.43,-1276.73 67.43,-1276.73 67.43,-1247.27 67.43,-1247.27 67.43,-1245.47 80.94,-1244 97.56,-1244 114.18,-1244 127.68,-1245.47 127.68,-1247.27 127.68,-1247.27 127.68,-1276.73 127.68,-1276.73"/>
<path fill="none" stroke="black" d="M127.68,-1276.73C127.68,-1274.92 114.18,-1273.45 97.56,-1273.45 80.94,-1273.45 67.43,-1274.92 67.43,-1276.73"/>
<text xml:space="preserve" text-anchor="middle" x="97.56" y="-1257.55" font-family="Helvetica,sans-Serif" font-size="11.00">Migration</text>
</a>
</g>
</g>
<!-- model:User -->
<g id="node8" class="node">
<title>model:User</title>
<g id="a_node8"><a xlink:href="src/Tables/User.php" xlink:title="User">
<path fill="#d5dbdb" stroke="black" d="M124.56,-1330.73C124.56,-1332.53 112.46,-1334 97.56,-1334 82.66,-1334 70.56,-1332.53 70.56,-1330.73 70.56,-1330.73 70.56,-1301.27 70.56,-1301.27 70.56,-1299.47 82.66,-1298 97.56,-1298 112.46,-1298 124.56,-1299.47 124.56,-1301.27 124.56,-1301.27 124.56,-1330.73 124.56,-1330.73"/>
<path fill="none" stroke="black" d="M124.56,-1330.73C124.56,-1328.92 112.46,-1327.45 97.56,-1327.45 82.66,-1327.45 70.56,-1328.92 70.56,-1330.73"/>
<text xml:space="preserve" text-anchor="middle" x="97.56" y="-1311.55" font-family="Helvetica,sans-Serif" font-size="11.00">User</text>
</a>
</g>
</g>
<!-- route:home -->
<g id="node9" class="node">
<title>route:home</title>
<g id="a_node9"><a xlink:href="src/Routes/Route.php" xlink:title="/">
<ellipse fill="#aed6f1" stroke="black" cx="749.97" cy="-1093" rx="27" ry="18"/>
<text xml:space="preserve" text-anchor="middle" x="749.97" y="-1088.55" font-family="Helvetica,sans-Serif" font-size="11.00">/</text>
</a>
</g>
</g>
<!-- controller:HomeController -->
<g id="node10" class="node">
<title>controller:HomeController</title>
<g id="a_node10"><a xlink:href="src/Controllers/HomeController.php" xlink:title="HomeController">
<polygon fill="#a9dfbf" stroke="black" points="997.44,-1064 904.94,-1064 904.94,-1028 997.44,-1028 997.44,-1064"/>
<text xml:space="preserve" text-anchor="middle" x="951.19" y="-1041.55" font-family="Helvetica,sans-Serif" font-size="11.00">HomeController</text>
</a>
</g>
</g>
<!-- route:home&#45;&gt;controller:HomeController -->
<g id="edge1" class="edge">
<title>route:home&#45;&gt;controller:HomeController</title>
<path fill="none" stroke="black" d="M775.79,-1087.14C805.03,-1080.24 854.53,-1068.57 893.34,-1059.41"/>
<polygon fill="black" stroke="black" points="894.09,-1062.83 903.02,-1057.13 892.48,-1056.02 894.09,-1062.83"/>
<text xml:space="preserve" text-anchor="middle" x="843.47" y="-1077.04" font-family="Times,serif" font-size="9.00">handled_by</text>
</g>
<!-- view:home -->
<g id="node11" class="node">
<title>view:home</title>
<g id="a_node11"><a xlink:href="templates/home.blade.php" xlink:title="home">
<polygon fill="#f9e79f" stroke="black" points="1130.53,-968 1082.53,-968 1082.53,-932 1136.53,-932 1136.53,-962 1130.53,-968"/>
<polyline fill="none" stroke="black" points="1130.53,-968 1130.53,-962"/>
<polyline fill="none" stroke="black" points="1136.53,-962 1130.53,-962"/>
<text xml:space="preserve" text-anchor="middle" x="1109.53" y="-945.55" font-family="Helvetica,sans-Serif" font-size="11.00">home</text>
</a>
</g>
</g>
<!-- controller:HomeController&#45;&gt;view:home -->
<g id="edge2" class="edge">
<title>controller:HomeController&#45;&gt;view:home</title>
<path fill="none" stroke="black" d="M981.96,-1027.72C1007.77,-1011.87 1045.17,-988.91 1072.62,-972.05"/>
<polygon fill="black" stroke="black" points="1074.27,-975.15 1080.96,-966.93 1070.61,-969.18 1074.27,-975.15"/>
<text xml:space="preserve" text-anchor="middle" x="1051.41" y="-994.2" font-family="Times,serif" font-size="9.00">renders</text>
</g>
<!-- view:home&#45;&gt;layout:base -->
<g id="edge13" class="edge">
<title>view:home&#45;&gt;layout:base</title>
<path fill="none" stroke="black" d="M1131.11,-931.51C1147.49,-915.56 1169.58,-891.04 1181.53,-865 1218.01,-785.51 1224.66,-680.27 1225.6,-629.67"/>
<polygon fill="black" stroke="black" points="1229.1,-629.86 1225.72,-619.82 1222.1,-629.78 1229.1,-629.86"/>
<text xml:space="preserve" text-anchor="middle" x="1168.03" y="-907.35" font-family="Times,serif" font-size="9.00">extends</text>
</g>
<!-- route:about -->
<g id="node12" class="node">
<title>route:about</title>
<g id="a_node12"><a xlink:href="src/Routes/Route.php" xlink:title="/about">
<ellipse fill="#aed6f1" stroke="black" cx="329.83" cy="-1208" rx="27.66" ry="18"/>
<text xml:space="preserve" text-anchor="middle" x="329.83" y="-1203.55" font-family="Helvetica,sans-Serif" font-size="11.00">/about</text>
</a>
</g>
</g>
<!-- view:about -->
<g id="node13" class="node">
<title>view:about</title>
<g id="a_node13"><a xlink:href="templates/about.blade.php" xlink:title="about">
<polygon fill="#f9e79f" stroke="black" points="566.32,-1226 518.32,-1226 518.32,-1190 572.32,-1190 572.32,-1220 566.32,-1226"/>
<polyline fill="none" stroke="black" points="566.32,-1226 566.32,-1220"/>
<polyline fill="none" stroke="black" points="572.32,-1220 566.32,-1220"/>
<text xml:space="preserve" text-anchor="middle" x="545.32" y="-1203.55" font-family="Helvetica,sans-Serif" font-size="11.00">about</text>
</a>
</g>
</g>
<!-- route:about&#45;&gt;view:about -->
<g id="edge3" class="edge">
<title>route:about&#45;&gt;view:about</title>
<path fill="none" stroke="black" d="M357.87,-1208C395.51,-1208 463.87,-1208 506.53,-1208"/>
<polygon fill="black" stroke="black" points="506.32,-1211.5 516.32,-1208 506.32,-1204.5 506.32,-1211.5"/>
<text xml:space="preserve" text-anchor="middle" x="436.43" y="-1209.95" font-family="Times,serif" font-size="9.00">renders</text>
</g>
<!-- view:about&#45;&gt;layout:base -->
<g id="edge8" class="edge">
<title>view:about&#45;&gt;layout:base</title>
<path fill="none" stroke="black" d="M572.55,-1208C611.18,-1208 685.64,-1208 748.97,-1208 748.97,-1208 748.97,-1208 1110.53,-1208 1170.12,-1208 1212.81,-751.27 1223.13,-629.52"/>
<polygon fill="black" stroke="black" points="1226.6,-629.96 1223.95,-619.7 1219.62,-629.38 1226.6,-629.96"/>
<text xml:space="preserve" text-anchor="middle" x="951.19" y="-1209.95" font-family="Times,serif" font-size="9.00">extends</text>
</g>
<!-- view:about&#45;&gt;route:home -->
<g id="edge9" class="edge">
<title>view:about&#45;&gt;route:home</title>
<path fill="none" stroke="black" d="M572.64,-1200.69C587.81,-1196.01 607,-1189.26 623.09,-1181 660.16,-1161.98 698.87,-1133.39 723.41,-1114"/>
<polygon fill="black" stroke="black" points="725.59,-1116.74 731.22,-1107.76 721.22,-1111.27 725.59,-1116.74"/>
<text xml:space="preserve" text-anchor="middle" x="659.09" y="-1172.91" font-family="Times,serif" font-size="9.00">references</text>
</g>
<!-- route:login -->
<g id="node14" class="node">
<title>route:login</title>
<g id="a_node14"><a xlink:href="src/Routes/Route.php" xlink:title="/login">
<ellipse fill="#aed6f1" stroke="black" cx="749.97" cy="-798" rx="27" ry="18"/>
<text xml:space="preserve" text-anchor="middle" x="749.97" y="-793.55" font-family="Helvetica,sans-Serif" font-size="11.00">/login</text>
</a>
</g>
</g>
<!-- view:login -->
<g id="node15" class="node">
<title>view:login</title>
<g id="a_node15"><a xlink:href="templates/login.blade.php" xlink:title="login">
<polygon fill="#f9e79f" stroke="black" points="566.32,-792 518.32,-792 518.32,-756 572.32,-756 572.32,-786 566.32,-792"/>
<polyline fill="none" stroke="black" points="566.32,-792 566.32,-786"/>
<polyline fill="none" stroke="black" points="572.32,-786 566.32,-786"/>
<text xml:space="preserve" text-anchor="middle" x="545.32" y="-769.55" font-family="Helvetica,sans-Serif" font-size="11.00">login</text>
</a>
</g>
</g>
<!-- route:login&#45;&gt;view:login -->
<g id="edge4" class="edge">
<title>route:login&#45;&gt;view:login</title>
<path fill="none" stroke="black" d="M723.11,-794.94C687.9,-790.77 624.63,-783.27 584.1,-778.47"/>
<polygon fill="black" stroke="black" points="584.66,-775.02 574.32,-777.32 583.84,-781.97 584.66,-775.02"/>
<text xml:space="preserve" text-anchor="middle" x="659.09" y="-790.81" font-family="Times,serif" font-size="9.00">renders</text>
</g>
<!-- view:login&#45;&gt;layout:base -->
<g id="edge14" class="edge">
<title>view:login&#45;&gt;layout:base</title>
<path fill="none" stroke="black" d="M572.64,-791.09C610.17,-813.77 681.97,-851 748.97,-851 748.97,-851 748.97,-851 1110.53,-851 1206.87,-851 1222.82,-696.28 1225.23,-629.79"/>
<polygon fill="black" stroke="black" points="1228.72,-630.06 1225.5,-619.97 1221.73,-629.87 1228.72,-630.06"/>
<text xml:space="preserve" text-anchor="middle" x="951.19" y="-852.95" font-family="Times,serif" font-size="9.00">extends</text>
</g>
<!-- view:login&#45;&gt;component:button -->
<g id="edge18" class="edge">
<title>view:login&#45;&gt;component:button</title>
<path fill="none" stroke="black" d="M552.84,-755.77C565.89,-720.86 597.74,-643.2 641.09,-588.5 654.11,-572.06 663.74,-574.17 677.09,-558 687.48,-545.42 686.32,-539.76 695.09,-526 705.39,-509.85 717.8,-492.45 728.12,-478.47"/>
<polygon fill="black" stroke="black" points="730.8,-480.73 733.97,-470.62 725.19,-476.55 730.8,-480.73"/>
<text xml:space="preserve" text-anchor="middle" x="659.09" y="-590.45" font-family="Times,serif" font-size="9.00">uses</text>
</g>
<!-- view:login&#45;&gt;component:card -->
<g id="edge15" class="edge">
<title>view:login&#45;&gt;component:card</title>
<path fill="none" stroke="black" d="M547.9,-755.64C552.96,-706.52 572.73,-570.01 641.09,-484.5 652.73,-469.94 666.39,-478.26 677.09,-463 701.27,-428.54 677.24,-408.13 695.09,-370 701.72,-355.84 712.07,-342.11 721.92,-330.88"/>
<polygon fill="black" stroke="black" points="724.45,-333.31 728.62,-323.57 719.29,-328.58 724.45,-333.31"/>
<text xml:space="preserve" text-anchor="middle" x="659.09" y="-486.45" font-family="Times,serif" font-size="9.00">uses</text>
</g>
<!-- view:login&#45;&gt;component:form&#45;group -->
<g id="edge16" class="edge">
<title>view:login&#45;&gt;component:form&#45;group</title>
<path fill="none" stroke="black" d="M566.21,-755.56C585.09,-738.28 614.46,-711.97 641.09,-690.5 656.56,-678.03 664.29,-679.2 677.09,-664 688.61,-650.32 685.84,-643.31 695.09,-628 704.99,-611.61 717.38,-594.19 727.78,-580.26"/>
<polygon fill="black" stroke="black" points="730.45,-582.53 733.69,-572.45 724.87,-578.31 730.45,-582.53"/>
<text xml:space="preserve" text-anchor="middle" x="659.09" y="-692.45" font-family="Times,serif" font-size="9.00">uses</text>
</g>
<!-- view:login&#45;&gt;component:input -->
<g id="edge17" class="edge">
<title>view:login&#45;&gt;component:input</title>
<path fill="none" stroke="black" d="M572.64,-770.48C600.37,-765.82 644.46,-755.65 677.09,-735 698.52,-721.43 717.45,-699.74 730.49,-682.36"/>
<polygon fill="black" stroke="black" points="733.19,-684.61 736.22,-674.46 727.52,-680.5 733.19,-684.61"/>
<text xml:space="preserve" text-anchor="middle" x="659.09" y="-753.46" font-family="Times,serif" font-size="9.00">uses</text>
</g>
<!-- view:login&#45;&gt;route:home -->
<g id="edge20" class="edge">
<title>view:login&#45;&gt;route:home</title>
<path fill="none" stroke="black" d="M569.3,-792.24C586.95,-807.58 610.37,-831.1 623.09,-857 644.35,-900.28 621.97,-919.73 641.09,-964 651.59,-988.32 664.35,-988.28 677.09,-1011.5 688.15,-1031.66 680.48,-1042.24 695.09,-1060 700.97,-1067.15 708.82,-1073.17 716.72,-1078.03"/>
<polygon fill="black" stroke="black" points="714.83,-1080.98 725.26,-1082.82 718.25,-1074.88 714.83,-1080.98"/>
<text xml:space="preserve" text-anchor="middle" x="659.09" y="-1013.45" font-family="Times,serif" font-size="9.00">references</text>
</g>
<!-- view:login&#45;&gt;route:login -->
<g id="edge19" class="edge">
<title>view:login&#45;&gt;route:login</title>
<path fill="none" stroke="black" d="M572.79,-784.42C591.53,-791.22 617.44,-799.46 641.09,-803 656.91,-805.37 661.1,-803.56 677.09,-803 688.2,-802.61 700.25,-801.89 711.26,-801.12"/>
<polygon fill="black" stroke="black" points="711.48,-804.61 721.19,-800.38 710.96,-797.63 711.48,-804.61"/>
<text xml:space="preserve" text-anchor="middle" x="659.09" y="-806.14" font-family="Times,serif" font-size="9.00">references</text>
</g>
<!-- route:register -->
<g id="node16" class="node">
<title>route:register</title>
<g id="a_node16"><a xlink:href="src/Routes/Route.php" xlink:title="/register">
<ellipse fill="#aed6f1" stroke="black" cx="749.97" cy="-100" rx="33.07" ry="18"/>
<text xml:space="preserve" text-anchor="middle" x="749.97" y="-95.55" font-family="Helvetica,sans-Serif" font-size="11.00">/register</text>
</a>
</g>
</g>
<!-- controller:RegisterController -->
<g id="node17" class="node">
<title>controller:RegisterController</title>
<g id="a_node17"><a xlink:href="src/Controllers/RegisterController.php" xlink:title="RegisterController">
<polygon fill="#a9dfbf" stroke="black" points="1003.06,-170 899.31,-170 899.31,-134 1003.06,-134 1003.06,-170"/>
<text xml:space="preserve" text-anchor="middle" x="951.19" y="-147.55" font-family="Helvetica,sans-Serif" font-size="11.00">RegisterController</text>
</a>
</g>
</g>
<!-- route:register&#45;&gt;controller:RegisterController -->
<g id="edge5" class="edge">
<title>route:register&#45;&gt;controller:RegisterController</title>
<path fill="none" stroke="black" d="M780.36,-107.67C808.61,-115.05 852.19,-126.42 888.13,-135.8"/>
<polygon fill="black" stroke="black" points="886.99,-139.12 897.55,-138.26 888.76,-132.35 886.99,-139.12"/>
<text xml:space="preserve" text-anchor="middle" x="843.47" y="-131.06" font-family="Times,serif" font-size="9.00">handled_by</text>
</g>
<!-- view:register -->
<g id="node18" class="node">
<title>view:register</title>
<g id="a_node18"><a xlink:href="templates/register.blade.php" xlink:title="register">
<polygon fill="#f9e79f" stroke="black" points="566.32,-308 518.32,-308 518.32,-272 572.32,-272 572.32,-302 566.32,-308"/>
<polyline fill="none" stroke="black" points="566.32,-308 566.32,-302"/>
<polyline fill="none" stroke="black" points="572.32,-302 566.32,-302"/>
<text xml:space="preserve" text-anchor="middle" x="545.32" y="-285.55" font-family="Helvetica,sans-Serif" font-size="11.00">register</text>
</a>
</g>
</g>
<!-- controller:RegisterController&#45;&gt;view:register -->
<g id="edge6" class="edge">
<title>controller:RegisterController&#45;&gt;view:register</title>
<path fill="none" stroke="black" d="M899.09,-162.32C871.24,-167.92 836.16,-174.91 804.84,-181 732.13,-195.14 708.17,-180.59 641.09,-212 614.39,-224.5 588.87,-246.27 571.05,-263.64"/>
<polygon fill="black" stroke="black" points="568.61,-261.14 564.02,-270.69 573.56,-266.08 568.61,-261.14"/>
<text xml:space="preserve" text-anchor="middle" x="749.97" y="-195.41" font-family="Times,serif" font-size="9.00">renders</text>
</g>
<!-- view:register&#45;&gt;layout:base -->
<g id="edge21" class="edge">
<title>view:register&#45;&gt;layout:base</title>
<path fill="none" stroke="black" d="M572.65,-282.92C611.1,-273.22 684.98,-257 748.97,-257 748.97,-257 748.97,-257 1110.53,-257 1165.77,-257 1160.31,-308 1181.53,-359 1211.53,-431.09 1221.13,-523.73 1224.16,-570.37"/>
<polygon fill="black" stroke="black" points="1220.66,-570.43 1224.74,-580.21 1227.65,-570.02 1220.66,-570.43"/>
<text xml:space="preserve" text-anchor="middle" x="951.19" y="-258.95" font-family="Times,serif" font-size="9.00">extends</text>
</g>
<!-- view:register&#45;&gt;component:button -->
<g id="edge25" class="edge">
<title>view:register&#45;&gt;component:button</title>
<path fill="none" stroke="black" d="M559.8,-308.47C576.86,-330.95 608.04,-369.1 641.09,-395 662.53,-411.8 670.91,-411.45 695.09,-424 700.66,-426.89 706.58,-429.91 712.38,-432.84"/>
<polygon fill="black" stroke="black" points="710.72,-435.92 721.23,-437.29 713.87,-429.67 710.72,-435.92"/>
<text xml:space="preserve" text-anchor="middle" x="659.09" y="-417.33" font-family="Times,serif" font-size="9.00">uses</text>
</g>
<!-- view:register&#45;&gt;component:card -->
<g id="edge22" class="edge">
<title>view:register&#45;&gt;component:card</title>
<path fill="none" stroke="black" d="M572.68,-289.06C599.14,-288.41 641.03,-288.18 677.09,-291.5 688.32,-292.53 700.44,-294.36 711.46,-296.31"/>
<polygon fill="black" stroke="black" points="710.52,-299.69 720.99,-298.07 711.79,-292.81 710.52,-299.69"/>
<text xml:space="preserve" text-anchor="middle" x="659.09" y="-293.45" font-family="Times,serif" font-size="9.00">uses</text>
</g>
<!-- view:register&#45;&gt;component:form&#45;group -->
<g id="edge23" class="edge">
<title>view:register&#45;&gt;component:form&#45;group</title>
<path fill="none" stroke="black" d="M558.99,-308.25C575.84,-333.29 605.54,-380.2 623.09,-424 635.52,-455.02 620.42,-470.74 641.09,-497 645.64,-502.78 677.21,-518.86 705.03,-532.32"/>
<polygon fill="black" stroke="black" points="703.16,-535.31 713.69,-536.48 706.2,-529 703.16,-535.31"/>
<text xml:space="preserve" text-anchor="middle" x="659.09" y="-520.19" font-family="Times,serif" font-size="9.00">uses</text>
</g>
<!-- view:register&#45;&gt;component:input -->
<g id="edge24" class="edge">
<title>view:register&#45;&gt;component:input</title>
<path fill="none" stroke="black" d="M560.2,-308.34C578.12,-333.12 608.72,-379.34 623.09,-424 635.07,-461.21 619.11,-566.67 641.09,-599 643.38,-602.37 682.21,-622.08 712.64,-637.17"/>
<polygon fill="black" stroke="black" points="710.7,-640.11 721.21,-641.41 713.8,-633.84 710.7,-640.11"/>
<text xml:space="preserve" text-anchor="middle" x="659.09" y="-619.97" font-family="Times,serif" font-size="9.00">uses</text>
</g>
<!-- view:register&#45;&gt;route:login -->
<g id="edge27" class="edge">
<title>view:register&#45;&gt;route:login</title>
<path fill="none" stroke="black" d="M560.45,-308.26C578.65,-332.95 609.56,-379.07 623.09,-424 640.88,-483.06 608.92,-648.37 641.09,-701 650.81,-716.9 662.53,-710.87 677.09,-722.5 696.24,-737.8 715.24,-758.04 728.89,-773.71"/>
<polygon fill="black" stroke="black" points="726.13,-775.87 735.29,-781.19 731.45,-771.32 726.13,-775.87"/>
<text xml:space="preserve" text-anchor="middle" x="659.09" y="-724.45" font-family="Times,serif" font-size="9.00">references</text>
</g>
<!-- view:register&#45;&gt;route:register -->
<g id="edge26" class="edge">
<title>view:register&#45;&gt;route:register</title>
<path fill="none" stroke="black" d="M554.09,-271.51C567.62,-241.32 598.22,-181.22 641.09,-145.5 660.64,-129.21 686.86,-117.97 708.56,-110.74"/>
<polygon fill="black" stroke="black" points="709.5,-114.11 717.99,-107.77 707.4,-107.44 709.5,-114.11"/>
<text xml:space="preserve" text-anchor="middle" x="659.09" y="-147.45" font-family="Times,serif" font-size="9.00">references</text>
</g>
<!-- viewmodel:RegisterViewModel -->
<g id="node26" class="node">
<title>viewmodel:RegisterViewModel</title>
<g id="a_node26"><a xlink:href="src/ViewModels/RegisterViewModel.php" xlink:title="RegisterViewModel">
<path fill="#fadbd8" stroke="black" d="M804.84,-168.73C804.84,-170.53 780.24,-172 749.97,-172 719.69,-172 695.09,-170.53 695.09,-168.73 695.09,-168.73 695.09,-139.27 695.09,-139.27 695.09,-137.47 719.69,-136 749.97,-136 780.24,-136 804.84,-137.47 804.84,-139.27 804.84,-139.27 804.84,-168.73 804.84,-168.73"/>
<path fill="none" stroke="black" d="M804.84,-168.73C804.84,-166.92 780.24,-165.45 749.97,-165.45 719.69,-165.45 695.09,-166.92 695.09,-168.73"/>
<text xml:space="preserve" text-anchor="middle" x="749.97" y="-149.55" font-family="Helvetica,sans-Serif" font-size="11.00">RegisterViewModel</text>
</a>
</g>
</g>
<!-- view:register&#45;&gt;viewmodel:RegisterViewModel -->
<g id="edge28" class="edge">
<title>view:register&#45;&gt;viewmodel:RegisterViewModel</title>
<path fill="none" stroke="black" d="M555.73,-271.6C570.24,-245.26 600.68,-197.36 641.09,-173.5 653.89,-165.94 668.92,-161.18 683.62,-158.21"/>
<polygon fill="black" stroke="black" points="684.02,-161.7 693.27,-156.54 682.82,-154.8 684.02,-161.7"/>
<text xml:space="preserve" text-anchor="middle" x="659.09" y="-175.45" font-family="Times,serif" font-size="9.00">receives</text>
</g>
<!-- route:opcache_status -->
<g id="node19" class="node">
<title>route:opcache_status</title>
<g id="a_node19"><a xlink:href="src/Routes/Route.php" xlink:title="/_opcache/status [dev]">
<ellipse fill="#aed6f1" stroke="black" cx="329.83" cy="-1370" rx="74.11" ry="18"/>
<text xml:space="preserve" text-anchor="middle" x="329.83" y="-1365.55" font-family="Helvetica,sans-Serif" font-size="11.00">/_opcache/status [dev]</text>
</a>
</g>
</g>
<!-- route:opcache_scripts -->
<g id="node20" class="node">
<title>route:opcache_scripts</title>
<g id="a_node20"><a xlink:href="src/Routes/Route.php" xlink:title="/_opcache/scripts [dev]">
<ellipse fill="#aed6f1" stroke="black" cx="329.83" cy="-1424" rx="75.47" ry="18"/>
<text xml:space="preserve" text-anchor="middle" x="329.83" y="-1419.55" font-family="Helvetica,sans-Serif" font-size="11.00">/_opcache/scripts [dev]</text>
</a>
</g>
</g>
<!-- route:styleguide -->
<g id="node21" class="node">
<title>route:styleguide</title>
<g id="a_node21"><a xlink:href="src/Routes/Route.php" xlink:title="/_styleguide [dev]">
<ellipse fill="#aed6f1" stroke="black" cx="329.83" cy="-451" rx="59.68" ry="18"/>
<text xml:space="preserve" text-anchor="middle" x="329.83" y="-446.55" font-family="Helvetica,sans-Serif" font-size="11.00">/_styleguide [dev]</text>
</a>
</g>
</g>
<!-- view:styleguide -->
<g id="node22" class="node">
<title>view:styleguide</title>
<g id="a_node22"><a xlink:href="templates/styleguide.blade.php" xlink:title="styleguide">
<polygon fill="#f9e79f" stroke="black" points="571.32,-469 513.32,-469 513.32,-433 577.32,-433 577.32,-463 571.32,-469"/>
<polyline fill="none" stroke="black" points="571.32,-469 571.32,-463"/>
<polyline fill="none" stroke="black" points="577.32,-463 571.32,-463"/>
<text xml:space="preserve" text-anchor="middle" x="545.32" y="-446.55" font-family="Helvetica,sans-Serif" font-size="11.00">styleguide</text>
</a>
</g>
</g>
<!-- route:styleguide&#45;&gt;view:styleguide -->
<g id="edge7" class="edge">
<title>route:styleguide&#45;&gt;view:styleguide</title>
<path fill="none" stroke="black" d="M389.74,-451C425.24,-451 469.65,-451 501.75,-451"/>
<polygon fill="black" stroke="black" points="501.46,-454.5 511.46,-451 501.46,-447.5 501.46,-454.5"/>
<text xml:space="preserve" text-anchor="middle" x="436.43" y="-452.95" font-family="Times,serif" font-size="9.00">renders</text>
</g>
<!-- view:styleguide&#45;&gt;layout:base -->
<g id="edge29" class="edge">
<title>view:styleguide&#45;&gt;layout:base</title>
<path fill="none" stroke="black" d="M564.25,-432.82C582.17,-415.68 611.28,-390.51 641.09,-376 685.43,-354.42 699.65,-350 748.97,-350 748.97,-350 748.97,-350 1110.53,-350 1206.56,-350 1222.69,-504.1 1225.19,-570.33"/>
<polygon fill="black" stroke="black" points="1221.68,-570.21 1225.47,-580.1 1228.68,-570.01 1221.68,-570.21"/>
<text xml:space="preserve" text-anchor="middle" x="951.19" y="-351.95" font-family="Times,serif" font-size="9.00">extends</text>
</g>
<!-- view:styleguide&#45;&gt;component:alert -->
<g id="edge34" class="edge">
<title>view:styleguide&#45;&gt;component:alert</title>
<path fill="none" stroke="black" d="M564.72,-432.81C582.54,-416.57 611.19,-393.94 641.09,-384.5 663.84,-377.31 690.47,-380.29 711.57,-385.13"/>
<polygon fill="black" stroke="black" points="710.65,-388.51 721.2,-387.59 712.38,-381.73 710.65,-388.51"/>
<text xml:space="preserve" text-anchor="middle" x="659.09" y="-386.45" font-family="Times,serif" font-size="9.00">uses</text>
</g>
<!-- view:styleguide&#45;&gt;component:button -->
<g id="edge30" class="edge">
<title>view:styleguide&#45;&gt;component:button</title>
<path fill="none" stroke="black" d="M577.54,-451C613.48,-451 672.51,-451 711.06,-451"/>
<polygon fill="black" stroke="black" points="711.04,-454.5 721.04,-451 711.04,-447.5 711.04,-454.5"/>
<text xml:space="preserve" text-anchor="middle" x="659.09" y="-452.95" font-family="Times,serif" font-size="9.00">uses</text>
</g>
<!-- view:styleguide&#45;&gt;component:card -->
<g id="edge33" class="edge">
<title>view:styleguide&#45;&gt;component:card</title>
<path fill="none" stroke="black" d="M554.72,-432.68C568.53,-404.78 598.77,-352.06 641.09,-325.5 662.07,-312.34 689.48,-306.99 711.42,-304.92"/>
<polygon fill="black" stroke="black" points="711.42,-308.43 721.14,-304.21 710.91,-301.45 711.42,-308.43"/>
<text xml:space="preserve" text-anchor="middle" x="659.09" y="-327.45" font-family="Times,serif" font-size="9.00">uses</text>
</g>
<!-- view:styleguide&#45;&gt;component:form&#45;group -->
<g id="edge32" class="edge">
<title>view:styleguide&#45;&gt;component:form&#45;group</title>
<path fill="none" stroke="black" d="M562.57,-469.29C580.09,-487.8 609.7,-515.79 641.09,-531 660.5,-540.4 683.76,-545.79 703.71,-548.88"/>
<polygon fill="black" stroke="black" points="703.13,-552.33 713.51,-550.23 704.09,-545.4 703.13,-552.33"/>
<text xml:space="preserve" text-anchor="middle" x="659.09" y="-545.02" font-family="Times,serif" font-size="9.00">uses</text>
</g>
<!-- view:styleguide&#45;&gt;component:input -->
<g id="edge31" class="edge">
<title>view:styleguide&#45;&gt;component:input</title>
<path fill="none" stroke="black" d="M550.31,-469.38C559.4,-506.61 585.33,-590.97 641.09,-633 661.14,-648.12 689.03,-653.51 711.42,-655.18"/>
<polygon fill="black" stroke="black" points="711.21,-658.68 721.38,-655.68 711.56,-651.68 711.21,-658.68"/>
<text xml:space="preserve" text-anchor="middle" x="659.09" y="-651.22" font-family="Times,serif" font-size="9.00">uses</text>
</g>
<!-- view:styleguide&#45;&gt;route:home -->
<g id="edge35" class="edge">
<title>view:styleguide&#45;&gt;route:home</title>
<path fill="none" stroke="black" d="M552.19,-469.48C566.64,-515.72 604.14,-640.37 623.09,-747 630.24,-787.23 619.2,-895.49 641.09,-930 651.07,-945.74 666.59,-936.1 677.09,-951.5 704.63,-991.89 667.78,-1019.46 695.09,-1060 700.3,-1067.74 708,-1073.98 715.96,-1078.86"/>
<polygon fill="black" stroke="black" points="714.22,-1081.9 724.68,-1083.61 717.57,-1075.75 714.22,-1081.9"/>
<text xml:space="preserve" text-anchor="middle" x="659.09" y="-953.45" font-family="Times,serif" font-size="9.00">references</text>
</g>
<!-- route:routes -->
<g id="node23" class="node">
<title>route:routes</title>
<g id="a_node23"><a xlink:href="src/Routes/Route.php" xlink:title="/_routes [dev]">
<ellipse fill="#aed6f1" stroke="black" cx="749.97" cy="-918" rx="48.86" ry="18"/>
<text xml:space="preserve" text-anchor="middle" x="749.97" y="-913.55" font-family="Helvetica,sans-Serif" font-size="11.00">/_routes [dev]</text>
</a>
</g>
</g>
<!-- view:error -->
<g id="node24" class="node">
<title>view:error</title>
<g id="a_node24"><a xlink:href="templates/error.blade.php" xlink:title="error">
<polygon fill="#f9e79f" stroke="black" points="566.32,-64 518.32,-64 518.32,-28 572.32,-28 572.32,-58 566.32,-64"/>
<polyline fill="none" stroke="black" points="566.32,-64 566.32,-58"/>
<polyline fill="none" stroke="black" points="572.32,-58 566.32,-58"/>
<text xml:space="preserve" text-anchor="middle" x="545.32" y="-41.55" font-family="Helvetica,sans-Serif" font-size="11.00">error</text>
</a>
</g>
</g>
<!-- view:error&#45;&gt;layout:base -->
<g id="edge10" class="edge">
<title>view:error&#45;&gt;layout:base</title>
<path fill="none" stroke="black" d="M572.77,-36.02C611.04,-22.49 684.39,0 748.97,0 748.97,0 748.97,0 1110.53,0 1169.3,0 1212.51,-449.74 1223.05,-570.47"/>
<polygon fill="black" stroke="black" points="1219.54,-570.55 1223.89,-580.21 1226.52,-569.94 1219.54,-570.55"/>
<text xml:space="preserve" text-anchor="middle" x="951.19" y="-1.95" font-family="Times,serif" font-size="9.00">extends</text>
</g>
<!-- view:error&#45;&gt;component:card -->
<g id="edge11" class="edge">
<title>view:error&#45;&gt;component:card</title>
<path fill="none" stroke="black" d="M572.64,-48.43C589.6,-51.43 610.71,-58.12 623.09,-73 656.18,-112.77 618.49,-141.47 641.09,-188 658.64,-224.13 691.28,-256.8 716.08,-278.19"/>
<polygon fill="black" stroke="black" points="713.76,-280.8 723.66,-284.57 718.26,-275.45 713.76,-280.8"/>
<text xml:space="preserve" text-anchor="middle" x="659.09" y="-239.72" font-family="Times,serif" font-size="9.00">uses</text>
</g>
<!-- viewmodel:ErrorViewModel -->
<g id="node25" class="node">
<title>viewmodel:ErrorViewModel</title>
<g id="a_node25"><a xlink:href="src/ViewModels/ErrorViewModel.php" xlink:title="ErrorViewModel">
<path fill="#fadbd8" stroke="black" d="M796.97,-60.73C796.97,-62.53 775.9,-64 749.97,-64 724.03,-64 702.97,-62.53 702.97,-60.73 702.97,-60.73 702.97,-31.27 702.97,-31.27 702.97,-29.47 724.03,-28 749.97,-28 775.9,-28 796.97,-29.47 796.97,-31.27 796.97,-31.27 796.97,-60.73 796.97,-60.73"/>
<path fill="none" stroke="black" d="M796.97,-60.73C796.97,-58.92 775.9,-57.45 749.97,-57.45 724.03,-57.45 702.97,-58.92 702.97,-60.73"/>
<text xml:space="preserve" text-anchor="middle" x="749.97" y="-41.55" font-family="Helvetica,sans-Serif" font-size="11.00">ErrorViewModel</text>
</a>
</g>
</g>
<!-- view:error&#45;&gt;viewmodel:ErrorViewModel -->
<g id="edge12" class="edge">
<title>view:error&#45;&gt;viewmodel:ErrorViewModel</title>
<path fill="none" stroke="black" d="M572.81,-46C602.73,-46 652.3,-46 691.25,-46"/>
<polygon fill="black" stroke="black" points="691.19,-49.5 701.19,-46 691.19,-42.5 691.19,-49.5"/>
<text xml:space="preserve" text-anchor="middle" x="659.09" y="-47.95" font-family="Times,serif" font-size="9.00">receives</text>
</g>
<!-- test:AboutRouteTest -->
<g id="node31" class="node">
<title>test:AboutRouteTest</title>
<g id="a_node31"><a xlink:href="tests/Integration/AboutRouteTest.php" xlink:title="AboutRouteTest">
<polygon fill="#d6eaf8" stroke="black" points="162.31,-1208 129.93,-1226 65.18,-1226 32.81,-1208 65.18,-1190 129.93,-1190 162.31,-1208"/>
<text xml:space="preserve" text-anchor="middle" x="97.56" y="-1203.55" font-family="Helvetica,sans-Serif" font-size="11.00">AboutRouteTest</text>
</a>
</g>
</g>
<!-- test:AboutRouteTest&#45;&gt;route:about -->
<g id="edge40" class="edge">
<title>test:AboutRouteTest&#45;&gt;route:about</title>
<path fill="none" stroke="black" d="M163.32,-1208C204.25,-1208 255.77,-1208 290.36,-1208"/>
<polygon fill="black" stroke="black" points="290.33,-1211.5 300.33,-1208 290.33,-1204.5 290.33,-1211.5"/>
<text xml:space="preserve" text-anchor="middle" x="224.74" y="-1209.95" font-family="Times,serif" font-size="9.00">covers</text>
</g>
<!-- test:BladeCacheTest -->
<g id="node32" class="node">
<title>test:BladeCacheTest</title>
<g id="a_node32"><a xlink:href="tests/Integration/BladeCacheTest.php" xlink:title="BladeCacheTest">
<polygon fill="#d6eaf8" stroke="black" points="163.35,-1478 130.45,-1496 64.66,-1496 31.77,-1478 64.66,-1460 130.45,-1460 163.35,-1478"/>
<text xml:space="preserve" text-anchor="middle" x="97.56" y="-1473.55" font-family="Helvetica,sans-Serif" font-size="11.00">BladeCacheTest</text>
</a>
</g>
</g>
<!-- test:HOT004Test -->
<g id="node33" class="node">
<title>test:HOT004Test</title>
<g id="a_node33"><a xlink:href="tests/Integration/HOT004Test.php" xlink:title="HOT004Test">
<polygon fill="#d6eaf8" stroke="black" points="598.61,-1100 571.97,-1118 518.68,-1118 492.03,-1100 518.68,-1082 571.97,-1082 598.61,-1100"/>
<text xml:space="preserve" text-anchor="middle" x="545.32" y="-1095.55" font-family="Helvetica,sans-Serif" font-size="11.00">HOT004Test</text>
</a>
</g>
</g>
<!-- test:HOT004Test&#45;&gt;route:home -->
<g id="edge41" class="edge">
<title>test:HOT004Test&#45;&gt;route:home</title>
<path fill="none" stroke="black" d="M596.67,-1098.26C632.27,-1097.03 679.22,-1095.41 711.53,-1094.29"/>
<polygon fill="black" stroke="black" points="711.34,-1097.8 721.21,-1093.96 711.1,-1090.81 711.34,-1097.8"/>
<text xml:space="preserve" text-anchor="middle" x="659.09" y="-1098.66" font-family="Times,serif" font-size="9.00">covers</text>
</g>
<!-- test:HomeControllerTest -->
<g id="node34" class="node">
<title>test:HomeControllerTest</title>
<g id="a_node34"><a xlink:href="tests/Integration/HomeControllerTest.php" xlink:title="HomeControllerTest">
<polygon fill="#d6eaf8" stroke="black" points="623.09,-1046 584.21,-1064 506.44,-1064 467.55,-1046 506.44,-1028 584.21,-1028 623.09,-1046"/>
<text xml:space="preserve" text-anchor="middle" x="545.32" y="-1041.55" font-family="Helvetica,sans-Serif" font-size="11.00">HomeControllerTest</text>
</a>
</g>
</g>
<!-- test:HomeControllerTest&#45;&gt;route:home -->
<g id="edge43" class="edge">
<title>test:HomeControllerTest&#45;&gt;route:home</title>
<path fill="none" stroke="black" d="M598.24,-1058.04C634.17,-1066.38 681.07,-1077.25 712.95,-1084.65"/>
<polygon fill="black" stroke="black" points="711.95,-1088.01 722.49,-1086.86 713.54,-1081.19 711.95,-1088.01"/>
<text xml:space="preserve" text-anchor="middle" x="659.09" y="-1077.04" font-family="Times,serif" font-size="9.00">covers</text>
</g>
<!-- test:HomeControllerTest&#45;&gt;controller:HomeController -->
<g id="edge42" class="edge">
<title>test:HomeControllerTest&#45;&gt;controller:HomeController</title>
<path fill="none" stroke="black" d="M624.19,-1046C703.01,-1046 823,-1046 893.31,-1046"/>
<polygon fill="black" stroke="black" points="893.06,-1049.5 903.06,-1046 893.06,-1042.5 893.06,-1049.5"/>
<text xml:space="preserve" text-anchor="middle" x="749.97" y="-1047.95" font-family="Times,serif" font-size="9.00">covers</text>
</g>
<!-- test:LoginRouteTest -->
<g id="node35" class="node">
<title>test:LoginRouteTest</title>
<g id="a_node35"><a xlink:href="tests/Integration/LoginRouteTest.php" xlink:title="LoginRouteTest">
<polygon fill="#d6eaf8" stroke="black" points="608.51,-884 576.91,-902 513.73,-902 482.13,-884 513.73,-866 576.91,-866 608.51,-884"/>
<text xml:space="preserve" text-anchor="middle" x="545.32" y="-879.55" font-family="Helvetica,sans-Serif" font-size="11.00">LoginRouteTest</text>
</a>
</g>
</g>
<!-- test:LoginRouteTest&#45;&gt;route:login -->
<g id="edge44" class="edge">
<title>test:LoginRouteTest&#45;&gt;route:login</title>
<path fill="none" stroke="black" d="M582.08,-868.82C620.14,-852.67 679.82,-827.34 716.55,-811.76"/>
<polygon fill="black" stroke="black" points="717.48,-815.16 725.32,-808.04 714.75,-808.72 717.48,-815.16"/>
<text xml:space="preserve" text-anchor="middle" x="659.09" y="-845.53" font-family="Times,serif" font-size="9.00">covers</text>
</g>
<!-- test:OpcacheScriptsRouteTest -->
<g id="node36" class="node">
<title>test:OpcacheScriptsRouteTest</title>
<g id="a_node36"><a xlink:href="tests/Integration/OpcacheScriptsRouteTest.php" xlink:title="OpcacheScriptsRouteTest">
<polygon fill="#d6eaf8" stroke="black" points="195.12,-1424 146.34,-1442 48.78,-1442 0,-1424 48.78,-1406 146.34,-1406 195.12,-1424"/>
<text xml:space="preserve" text-anchor="middle" x="97.56" y="-1419.55" font-family="Helvetica,sans-Serif" font-size="11.00">OpcacheScriptsRouteTest</text>
</a>
</g>
</g>
<!-- test:OpcacheScriptsRouteTest&#45;&gt;route:opcache_scripts -->
<g id="edge45" class="edge">
<title>test:OpcacheScriptsRouteTest&#45;&gt;route:opcache_scripts</title>
<path fill="none" stroke="black" d="M196.55,-1424C211.87,-1424 227.59,-1424 242.62,-1424"/>
<polygon fill="black" stroke="black" points="242.44,-1427.5 252.44,-1424 242.44,-1420.5 242.44,-1427.5"/>
<text xml:space="preserve" text-anchor="middle" x="224.74" y="-1425.95" font-family="Times,serif" font-size="9.00">covers</text>
</g>
<!-- test:OpcacheStatusRouteTest -->
<g id="node37" class="node">
<title>test:OpcacheStatusRouteTest</title>
<g id="a_node37"><a xlink:href="tests/Integration/OpcacheStatusRouteTest.php" xlink:title="OpcacheStatusRouteTest">
<polygon fill="#d6eaf8" stroke="black" points="193.55,-1370 145.56,-1388 49.56,-1388 1.56,-1370 49.56,-1352 145.56,-1352 193.55,-1370"/>
<text xml:space="preserve" text-anchor="middle" x="97.56" y="-1365.55" font-family="Helvetica,sans-Serif" font-size="11.00">OpcacheStatusRouteTest</text>
</a>
</g>
</g>
<!-- test:OpcacheStatusRouteTest&#45;&gt;route:opcache_status -->
<g id="edge46" class="edge">
<title>test:OpcacheStatusRouteTest&#45;&gt;route:opcache_status</title>
<path fill="none" stroke="black" d="M194.88,-1370C211.15,-1370 227.93,-1370 243.87,-1370"/>
<polygon fill="black" stroke="black" points="243.81,-1373.5 253.81,-1370 243.81,-1366.5 243.81,-1373.5"/>
<text xml:space="preserve" text-anchor="middle" x="224.74" y="-1371.95" font-family="Times,serif" font-size="9.00">covers</text>
</g>
<!-- test:RegisterRouteTest -->
<g id="node38" class="node">
<title>test:RegisterRouteTest</title>
<g id="a_node38"><a xlink:href="tests/Integration/RegisterRouteTest.php" xlink:title="RegisterRouteTest">
<polygon fill="#d6eaf8" stroke="black" points="618.4,-100 581.86,-118 508.78,-118 472.24,-100 508.78,-82 581.86,-82 618.4,-100"/>
<text xml:space="preserve" text-anchor="middle" x="545.32" y="-95.55" font-family="Helvetica,sans-Serif" font-size="11.00">RegisterRouteTest</text>
</a>
</g>
</g>
<!-- test:RegisterRouteTest&#45;&gt;route:register -->
<g id="edge47" class="edge">
<title>test:RegisterRouteTest&#45;&gt;route:register</title>
<path fill="none" stroke="black" d="M619.48,-100C648.16,-100 680.1,-100 705.09,-100"/>
<polygon fill="black" stroke="black" points="704.88,-103.5 714.88,-100 704.88,-96.5 704.88,-103.5"/>
<text xml:space="preserve" text-anchor="middle" x="659.09" y="-101.95" font-family="Times,serif" font-size="9.00">covers</text>
</g>
<!-- test:RoutesRouteTest -->
<g id="node39" class="node">
<title>test:RoutesRouteTest</title>
<g id="a_node39"><a xlink:href="tests/Integration/RoutesRouteTest.php" xlink:title="RoutesRouteTest">
<polygon fill="#d6eaf8" stroke="black" points="614.24,-965 579.78,-983 510.86,-983 476.41,-965 510.86,-947 579.78,-947 614.24,-965"/>
<text xml:space="preserve" text-anchor="middle" x="545.32" y="-960.55" font-family="Helvetica,sans-Serif" font-size="11.00">RoutesRouteTest</text>
</a>
</g>
</g>
<!-- test:RoutesRouteTest&#45;&gt;route:home -->
<g id="edge49" class="edge">
<title>test:RoutesRouteTest&#45;&gt;route:home</title>
<path fill="none" stroke="black" d="M574.74,-983.37C604.61,-1002.62 653,-1033.67 695.09,-1060 703,-1064.95 711.61,-1070.25 719.57,-1075.13"/>
<polygon fill="black" stroke="black" points="717.56,-1078 727.92,-1080.23 721.21,-1072.03 717.56,-1078"/>
<text xml:space="preserve" text-anchor="middle" x="659.09" y="-1049.18" font-family="Times,serif" font-size="9.00">covers</text>
</g>
<!-- test:RoutesRouteTest&#45;&gt;route:routes -->
<g id="edge48" class="edge">
<title>test:RoutesRouteTest&#45;&gt;route:routes</title>
<path fill="none" stroke="black" d="M575.81,-946.73C593.92,-936.58 617.99,-924.93 641.09,-919.5 656.79,-915.81 674.13,-914.43 690.23,-914.23"/>
<polygon fill="black" stroke="black" points="690.17,-917.73 700.19,-914.27 690.2,-910.73 690.17,-917.73"/>
<text xml:space="preserve" text-anchor="middle" x="659.09" y="-921.45" font-family="Times,serif" font-size="9.00">covers</text>
</g>
<!-- test:StyleguideRouteTest -->
<g id="node40" class="node">
<title>test:StyleguideRouteTest</title>
<g id="a_node40"><a xlink:href="tests/Integration/StyleguideRouteTest.php" xlink:title="StyleguideRouteTest">
<polygon fill="#d6eaf8" stroke="black" points="177.41,-451 137.48,-469 57.63,-469 17.71,-451 57.63,-433 137.48,-433 177.41,-451"/>
<text xml:space="preserve" text-anchor="middle" x="97.56" y="-446.55" font-family="Helvetica,sans-Serif" font-size="11.00">StyleguideRouteTest</text>
</a>
</g>
</g>
<!-- test:StyleguideRouteTest&#45;&gt;route:styleguide -->
<g id="edge50" class="edge">
<title>test:StyleguideRouteTest&#45;&gt;route:styleguide</title>
<path fill="none" stroke="black" d="M178.45,-451C204.47,-451 233.15,-451 258.43,-451"/>
<polygon fill="black" stroke="black" points="258.27,-454.5 268.27,-451 258.27,-447.5 258.27,-454.5"/>
<text xml:space="preserve" text-anchor="middle" x="224.74" y="-452.95" font-family="Times,serif" font-size="9.00">covers</text>
</g>
<!-- test:TRACE001Test -->
<g id="node41" class="node">
<title>test:TRACE001Test</title>
<g id="a_node41"><a xlink:href="tests/Integration/TRACE001Test.php" xlink:title="TRACE001Test">
<polygon fill="#d6eaf8" stroke="black" points="609.03,-1154 577.18,-1172 513.47,-1172 481.61,-1154 513.47,-1136 577.18,-1136 609.03,-1154"/>
<text xml:space="preserve" text-anchor="middle" x="545.32" y="-1149.55" font-family="Helvetica,sans-Serif" font-size="11.00">TRACE001Test</text>
</a>
</g>
</g>
<!-- test:TRACE001Test&#45;&gt;route:home -->
<g id="edge51" class="edge">
<title>test:TRACE001Test&#45;&gt;route:home</title>
<path fill="none" stroke="black" d="M587.82,-1141.51C625.12,-1130.28 679.27,-1113.98 714.31,-1103.43"/>
<polygon fill="black" stroke="black" points="714.95,-1106.89 723.52,-1100.66 712.93,-1100.19 714.95,-1106.89"/>
<text xml:space="preserve" text-anchor="middle" x="659.09" y="-1127.28" font-family="Times,serif" font-size="9.00">covers</text>
</g>
</g>
</svg>
